<svg id="illustrations" xmlns="http://www.w3.org/2000/svg" viewBox="0 0 104.3 111.2"><title>design</title><path d="M1860.1,919.1l2.5,1.5a4.7,4.7,0,0,1,0,7.9l-41.3,25.8a10.6,10.6,0,0,1-11.2,0l-41.3-25.8a4.7,4.7,0,0,1,0-7.9l2.7-1.7" transform="translate(-1763.5 -847.8)" style="fill:transparent;stroke:#3356ec;stroke-linecap:round;stroke-linejoin:round;stroke-width:6px"/><path d="M1860.1,898.4l2.5,1.5a4.7,4.7,0,0,1,0,7.9l-41.3,25.8a10.6,10.6,0,0,1-11.2,0l-41.3-25.8a4.7,4.7,0,0,1,0-7.9l2.7-1.7" transform="translate(-1763.5 -847.8)" style="fill:transparent;stroke:#3356ec;stroke-linecap:round;stroke-linejoin:round;stroke-width:6px"/><path d="M1862.6,886.1l-41.3,25.8a10.6,10.6,0,0,1-11.2,0l-41.3-25.8a4.7,4.7,0,0,1,0-7.9l41.3-25.8a10.6,10.6,0,0,1,11.2,0l41.3,25.8A4.7,4.7,0,0,1,1862.6,886.1Z" transform="translate(-1763.5 -847.8)" style="fill:transparent;stroke:#3356ec;stroke-linecap:round;stroke-linejoin:round;stroke-width:6px"/><ellipse cx="52.1" cy="33.1" rx="7.1" ry="4.1" style="fill:transparent;stroke:#21dab0;stroke-linecap:round;stroke-linejoin:round;stroke-width:5px"/></svg>