<svg id="illustrations" xmlns="http://www.w3.org/2000/svg" viewBox="0 0 109.9 115.3"><title>software</title><path d="M570.1,960.7a20.2,20.2,0,0,1-10-2.6L526.6,939a16.6,16.6,0,0,1-8.4-14.4V887.5a16.6,16.6,0,0,1,8.4-14.4L560.1,854a20.3,20.3,0,0,1,20,0l33.6,19.1a16.6,16.6,0,0,1,8.4,14.4v37.1a16.6,16.6,0,0,1-8.4,14.4l-33.6,19.1A20.2,20.2,0,0,1,570.1,960.7Z" transform="translate(-515.2 -848.4)" style="fill:none;stroke:#3356ec;stroke-linecap:round;stroke-linejoin:round;stroke-width:6px"/><path d="M570.1,933.2a10,10,0,0,1-5-1.3l-16.7-9.5a8.2,8.2,0,0,1-4.2-7.1V896.8a8.2,8.2,0,0,1,4.2-7.1l16.7-9.5a10.1,10.1,0,0,1,9.9,0l16.7,9.5a8.2,8.2,0,0,1,4.2,7.1v18.4a8.2,8.2,0,0,1-4.2,7.1l-16.7,9.5A10.1,10.1,0,0,1,570.1,933.2Z" transform="translate(-515.2 -848.4)" style="fill:none;stroke:#21dab0;stroke-linecap:round;stroke-linejoin:round;stroke-width:6px"/><polyline points="96.2 34.5 54.9 57.7 13.3 36.5" style="fill:none;stroke:#3356ec;stroke-linecap:round;stroke-linejoin:round;stroke-width:4px"/><line x1="54.9" y1="57.7" x2="54.9" y2="103.3" style="fill:none;stroke:#3356ec;stroke-linecap:round;stroke-linejoin:round;stroke-width:4px"/></svg>