<?xml version="1.0" encoding="utf-8"?>
<!-- Generator: Adobe Illustrator 19.2.1, SVG Export Plug-In . SVG Version: 6.00 Build 0)  -->
<svg version="1.1" id="illustrations" xmlns="http://www.w3.org/2000/svg" xmlns:xlink="http://www.w3.org/1999/xlink" x="0px"
	 y="0px" viewBox="0 0 109.9 126.8" style="enable-background:new 0 0 109.9 126.8;" xml:space="preserve">
<style type="text/css">
	.st0{fill:#3356EC;}
	.st1{fill:none;stroke:#21DAB0;stroke-width:6;stroke-linecap:round;stroke-linejoin:round;}
</style>
<title>system</title>
<path class="st0" d="M100.1,22.1L66.5,3c-7.1-4-15.9-4-23,0L9.9,22.1c-6.1,3.5-9.9,10-9.9,17v37.1c0,7,3.8,13.5,9.9,17l28.3,16.2
	v-6.9L12.9,88C8.6,85.6,6,81.1,6,76.2V39.1c0-4.9,2.6-9.4,6.9-11.8L46.5,8.2C49.1,6.7,52.1,6,55,6c2.9,0,5.9,0.7,8.5,2.2l33.6,19.1
	c4.2,2.4,6.9,6.9,6.9,11.8v37.1c0,4.9-2.6,9.4-6.9,11.8l-25.5,14.5v6.9l28.5-16.2c6.1-3.5,9.9-10,9.9-17V39.1
	C110,32.1,106.2,25.6,100.1,22.1z"/>
<line class="st1" x1="54.9" y1="47.9" x2="54.9" y2="112.3"/>
<polyline class="st1" points="34.8,68.1 54.9,47.9 75.1,68.1 "/>
<line class="st1" x1="54.9" y1="123.8" x2="54.9" y2="123.8"/>
</svg>
