<svg id="illustrations" xmlns="http://www.w3.org/2000/svg" viewBox="0 0 109.9 115.3"><title>web</title><path d="M768.8,606.7a20.2,20.2,0,0,1-10-2.6L725.2,585a16.6,16.6,0,0,1-8.4-14.4V533.4a16.6,16.6,0,0,1,8.4-14.4L758.8,500a20.3,20.3,0,0,1,20,0l33.6,19.1a16.6,16.6,0,0,1,8.4,14.4v37.1a16.6,16.6,0,0,1-8.4,14.4L778.8,604A20.2,20.2,0,0,1,768.8,606.7Z" transform="translate(-713.8 -494.4)" style="fill:none;stroke:#3356ec;stroke-linecap:round;stroke-linejoin:round;stroke-width:6px"/><path d="M768.8,585a12.2,12.2,0,0,1-6-1.6l-20.2-11.5a10,10,0,0,1-5-8.7V540.8a10,10,0,0,1,5-8.7l20.2-11.5a12.3,12.3,0,0,1,12,0L795,532.1a10,10,0,0,1,5,8.7v22.4a10,10,0,0,1-5,8.7l-20.2,11.5A12.2,12.2,0,0,1,768.8,585Z" transform="translate(-713.8 -494.4)" style="fill:none;stroke:#3356ec;stroke-linecap:round;stroke-linejoin:round;stroke-width:4px"/><path d="M768.8,566.2a5.2,5.2,0,0,1-2.6-.7l-8.7-4.9a4.3,4.3,0,0,1-2.2-3.7v-9.6a4.3,4.3,0,0,1,2.2-3.7l8.7-4.9a5.3,5.3,0,0,1,5.2,0l8.7,4.9a4.3,4.3,0,0,1,2.2,3.7v9.6a4.3,4.3,0,0,1-2.2,3.7l-8.7,4.9A5.2,5.2,0,0,1,768.8,566.2Z" transform="translate(-713.8 -494.4)" style="fill:none;stroke:#21dab0;stroke-linecap:round;stroke-linejoin:round;stroke-width:4px"/></svg>