<svg id="Calque_1" data-name="Calque 1" xmlns="http://www.w3.org/2000/svg" viewBox="0 0 517.1 282.8"><title>logo-compact-white</title><path d="M54,247.2a4.5,4.5,0,0,1,1.8,1.6,4.5,4.5,0,0,1,.7,2.2,5.1,5.1,0,0,1-.4,2.3,4.6,4.6,0,0,1-1.5,1.9L51.8,257l-3,1.5a34.4,34.4,0,0,1-14,2.9,33.9,33.9,0,0,1-13.5-2.7,32.9,32.9,0,0,1-11-7.5,33,33,0,0,1-7.5-11,35.2,35.2,0,0,1,0-27.1,35.4,35.4,0,0,1,18.6-18.6,33.9,33.9,0,0,1,13.5-2.7,34,34,0,0,1,21.8,7.5,4.5,4.5,0,0,1,1.4,1.9,4.9,4.9,0,0,1,.3,2.2,4.8,4.8,0,0,1-.7,2.1,4.3,4.3,0,0,1-1.8,1.6,4.4,4.4,0,0,1-2.6.5,4.5,4.5,0,0,1-2.4-1,24.2,24.2,0,0,0-5.9-3.5,24.8,24.8,0,0,0-10.1-2,24.3,24.3,0,0,0-9.9,2,24.3,24.3,0,0,0-8.1,5.4,26,26,0,0,0-5.4,8,24.6,24.6,0,0,0-2,10,24.3,24.3,0,0,0,2,9.9,28.9,28.9,0,0,0,5.4,8.1A28.9,28.9,0,0,0,25,250a24.4,24.4,0,0,0,9.9,2,25.2,25.2,0,0,0,9-1.6l2.8-1.4,2.6-1.5A4.4,4.4,0,0,1,54,247.2Z" fill="#fff"/><path d="M87.8,213.1a23.3,23.3,0,0,1,9.4,1.9,25.1,25.1,0,0,1,12.9,12.9,23.7,23.7,0,0,1,0,18.8,24.1,24.1,0,0,1-5.2,7.7,21.8,21.8,0,0,1-7.6,5.2,24.9,24.9,0,0,1-18.8,0,24.1,24.1,0,0,1-7.7-5.2,21.7,21.7,0,0,1-2.9-3.6,27.7,27.7,0,0,1-2.2-4.2,23.7,23.7,0,0,1,0-18.8,23.7,23.7,0,0,1,5.1-7.6,24.2,24.2,0,0,1,7.7-5.2A23.3,23.3,0,0,1,87.8,213.1Zm0,39.9a16.3,16.3,0,0,0,6.1-1.2,19.6,19.6,0,0,0,5-3.4,14.4,14.4,0,0,0,1.9-2.3,15.2,15.2,0,0,0,1.4-2.7,11,11,0,0,0,1-2.9,17.5,17.5,0,0,0,.3-3.2,14.7,14.7,0,0,0-1.3-6.1,15.3,15.3,0,0,0-1.4-2.7,14.5,14.5,0,0,0-4.2-4.2,15.4,15.4,0,0,0-2.7-1.4,14.8,14.8,0,0,0-6.1-1.3l-3.2.3a11,11,0,0,0-2.9,1,15.4,15.4,0,0,0-2.7,1.4,14.5,14.5,0,0,0-2.3,1.9,19.7,19.7,0,0,0-3.4,5,16.2,16.2,0,0,0-1.2,6.1,15.3,15.3,0,0,0,1.2,6.1,19.7,19.7,0,0,0,3.4,5,19.7,19.7,0,0,0,5,3.4A15.3,15.3,0,0,0,87.8,252.9Z" fill="#fff"/><path d="M176.1,213.1a19.6,19.6,0,0,1,15.6,7,23.7,23.7,0,0,1,4.2,7.6,29.8,29.8,0,0,1,1.5,9.5v19.9a4.3,4.3,0,0,1-8.5,0V237.2q0-1.6-.1-3.2a13.5,13.5,0,0,0-.6-3,13,13,0,0,0-2.3-4.9,10.4,10.4,0,0,0-4-3.4,12.4,12.4,0,0,0-5.6-1.3,13,13,0,0,0-3,.3l-2.7.9-2.2,1.5a9.9,9.9,0,0,0-1.8,1.9,22.6,22.6,0,0,0-2.3,5,25.4,25.4,0,0,0-.8,6.2v19.8a4.2,4.2,0,0,1-1.2,3,4.1,4.1,0,0,1-3,1.3,3.9,3.9,0,0,1-3-1.3,4.2,4.2,0,0,1-1.2-3V237.3a25.6,25.6,0,0,0-.8-6.2,23,23,0,0,0-2.3-5,11.3,11.3,0,0,0-4-3.4l-2.6-.9a12.4,12.4,0,0,0-3-.3,13,13,0,0,0-3,.3l-2.7.9-2.1,1.5a10.7,10.7,0,0,0-1.7,1.9,15.1,15.1,0,0,0-2.3,5,13.4,13.4,0,0,0-.6,3q-0.1,1.5-.1,3.2h-0.1v19.8a4.3,4.3,0,0,1-4.3,4.3h-0.5a4.3,4.3,0,0,1-4.3-4.3V234.8a21.2,21.2,0,0,1,1.7-8.4,21.7,21.7,0,0,1,11.5-11.6,21.1,21.1,0,0,1,8.5-1.7,20.5,20.5,0,0,1,10,2.3,26.4,26.4,0,0,1,3.1,2.1,6,6,0,0,0,7.8,0,26.1,26.1,0,0,1,3.1-2.1A20.1,20.1,0,0,1,176.1,213.1Z" fill="#fff"/><path d="M206.1,278.4V235.8a22.1,22.1,0,0,1,1.7-8.8,23.7,23.7,0,0,1,4.9-7.3,22.6,22.6,0,0,1,7.2-4.8,21.4,21.4,0,0,1,8.9-1.8,24.2,24.2,0,0,1,9.4,1.9,23.8,23.8,0,0,1,7.6,5.1,24.9,24.9,0,0,1,5.2,7.7,24.9,24.9,0,0,1,0,18.8,25.5,25.5,0,0,1-5.2,7.7,20.8,20.8,0,0,1-7.6,5.1,24.2,24.2,0,0,1-9.4,1.9A20.2,20.2,0,0,1,221,260l-1.9-1-1.6-1.1a1.5,1.5,0,0,0-1.5-.1,1.3,1.3,0,0,0-.8,1.3v19.4a4.4,4.4,0,0,1-1.4,3.2A4.5,4.5,0,0,1,206.1,278.4Zm22.7-56.8a15.6,15.6,0,0,0-8.2,2.2,15,15,0,0,0-5.6,5.9,16,16,0,0,0-1.9,7.5,14.7,14.7,0,0,0,1.9,7.5,14,14,0,0,0,5.6,6,15.6,15.6,0,0,0,8.2,2.2,13.9,13.9,0,0,0,6.1-1.3,14.6,14.6,0,0,0,2.6-1.4,15.4,15.4,0,0,0,2.3-1.9,16.1,16.1,0,0,0,3.4-5,15.4,15.4,0,0,0,0-12.2,16.1,16.1,0,0,0-3.4-5l-1.1-1-1.3-.9a11.3,11.3,0,0,0-2.6-1.5A13.9,13.9,0,0,0,228.9,221.6Z" fill="#fff"/><path d="M284.2,213.1a23.3,23.3,0,0,1,9.4,1.9,25.1,25.1,0,0,1,12.9,12.9,23.7,23.7,0,0,1,0,18.8,24.1,24.1,0,0,1-5.2,7.7,21.8,21.8,0,0,1-7.6,5.2,24.9,24.9,0,0,1-18.8,0,24.1,24.1,0,0,1-7.7-5.2,21.7,21.7,0,0,1-2.9-3.6,27.7,27.7,0,0,1-2.2-4.2,23.7,23.7,0,0,1,0-18.8,23.7,23.7,0,0,1,5.1-7.6,24.2,24.2,0,0,1,7.7-5.2A23.3,23.3,0,0,1,284.2,213.1Zm0,39.9a16.3,16.3,0,0,0,6.1-1.2,19.6,19.6,0,0,0,5-3.4,14.4,14.4,0,0,0,1.9-2.3,15.2,15.2,0,0,0,1.4-2.7,11,11,0,0,0,1-2.9,17.5,17.5,0,0,0,.3-3.2,14.7,14.7,0,0,0-1.3-6.1,15.3,15.3,0,0,0-1.4-2.7,14.5,14.5,0,0,0-4.2-4.2,15.4,15.4,0,0,0-2.7-1.4,14.8,14.8,0,0,0-6.1-1.3l-3.2.3a11,11,0,0,0-2.9,1,15.4,15.4,0,0,0-2.7,1.4,14.5,14.5,0,0,0-2.3,1.9,19.7,19.7,0,0,0-3.4,5,16.2,16.2,0,0,0-1.2,6.1,15.3,15.3,0,0,0,1.2,6.1,15.8,15.8,0,0,0,8.4,8.4A15.3,15.3,0,0,0,284.2,252.9Z" fill="#fff"/><path d="M345.5,241.1a12.8,12.8,0,0,1,1.5,5,12.2,12.2,0,0,1-.7,5.2,14.2,14.2,0,0,1-2.7,4.5,16.6,16.6,0,0,1-4,3.3,14.7,14.7,0,0,1-4.9,1.8,25.4,25.4,0,0,1-9.1.1,17.4,17.4,0,0,1-4.4-1.2l-1.9-.9a4.3,4.3,0,0,1-1.5-1.4,4.1,4.1,0,0,1-.8-2,4.2,4.2,0,0,1,.3-2.1,4.8,4.8,0,0,1,1.3-1.7,3.9,3.9,0,0,1,2-.9,5.7,5.7,0,0,1,2.7.2l2.6,0.7,1.9,0.4,2,0.3a8.2,8.2,0,0,0,4.8-1.1,4.6,4.6,0,0,0,2.4-4.1,5.1,5.1,0,0,0-2-4.3,6.1,6.1,0,0,0-2.2-1.1,8.8,8.8,0,0,0-2.4-.3,17.1,17.1,0,0,1-4.9-.7,16.4,16.4,0,0,1-4.5-2.1,15.1,15.1,0,0,1-3.6-3.3,12.5,12.5,0,0,1-2.2-4.5,11.2,11.2,0,0,1-.4-5,14.5,14.5,0,0,1,1.5-4.7,14.1,14.1,0,0,1,3-3.9,16.8,16.8,0,0,1,4.2-2.8,13.7,13.7,0,0,1,4.5-1.3,30.4,30.4,0,0,1,4.5-.1l2.7,0.2,2.7,0.5,2.4,0.7a9.2,9.2,0,0,1,2.3,1.2,4.4,4.4,0,0,1,0,7.3,4.9,4.9,0,0,1-2.1.6l-2.2-.2-2.2-.6-2.2-.5a22,22,0,0,0-4.1-.2,5.5,5.5,0,0,0-4.9,4,5.1,5.1,0,0,0,0,2.4,5.2,5.2,0,0,0,1.1,2.2,6,6,0,0,0,2.1,1.5,10.4,10.4,0,0,0,2.8.7h2.6a14.8,14.8,0,0,1,4.7,1.4,18.3,18.3,0,0,1,4.2,2.8A13.4,13.4,0,0,1,345.5,241.1Z" fill="#fff"/><path d="M407.4,251.2a14.5,14.5,0,0,0,3.5-2.6,4,4,0,0,1,2.3-1.2,3.7,3.7,0,0,1,2.6.4A4.1,4.1,0,0,1,418,251a3.9,3.9,0,0,1-1.2,3.7l-0.5.5-0.7.6-0.6.5-0.7.5-0.7.4-0.7.4-0.6.4-0.7.4a23.6,23.6,0,0,1-11.9,3.1,22.2,22.2,0,0,1-9.4-1.8,21.8,21.8,0,0,1-7.6-5.2,24.1,24.1,0,0,1-5.2-7.7,24.7,24.7,0,0,1-1.9-9.4,22.2,22.2,0,0,1,1.8-9.4,23.2,23.2,0,0,1,5-7.6,23.4,23.4,0,0,1,33.7,0l1.5,1.7,1.4,1.9,1.2,2,1,2.1a8.2,8.2,0,0,1,.7,3.5,7.6,7.6,0,0,1-.7,3.4,8.3,8.3,0,0,1-1.7,2.9,9,9,0,0,1-2.8,2l-0.7.3a9.4,9.4,0,0,1-3.9.9h-23a3.1,3.1,0,0,0-2.5,4.8,14.6,14.6,0,0,0,3.4,3.9,15.6,15.6,0,0,0,4.5,2.5,17,17,0,0,0,5.4.9A16.4,16.4,0,0,0,407.4,251.2Zm-20.6-22.5a1.5,1.5,0,0,0-.4.7,2.6,2.6,0,0,0,.1,2.8,3.1,3.1,0,0,0,2.8,1.5h20.3a3.1,3.1,0,0,0,2.8-1.5,2.6,2.6,0,0,0,.1-2.8l-0.4-.7-0.9-1.4L410,226l-1.8-1.5a16.2,16.2,0,0,0-4.1-2.1,15.8,15.8,0,0,0-4.5-.8h-0.4a14.1,14.1,0,0,0-8.4,2.7,12.7,12.7,0,0,0-1.9,1.5l-1.3,1.5Z" fill="#fff"/><path d="M476.5,253.1a7.3,7.3,0,0,1-7.4,7.4h-0.5a7.4,7.4,0,0,1-2.1-.3l-2.4-.5a5,5,0,0,0-2.6.3,19.8,19.8,0,0,1-7.8,1.5,24.2,24.2,0,0,1-9.5-1.8,24.4,24.4,0,0,1-7.6-5.2,26.9,26.9,0,0,1-5.1-7.6,24.4,24.4,0,0,1-1.9-9.5,23.3,23.3,0,0,1,1.9-9.4,23.7,23.7,0,0,1,5.1-7.6,23.9,23.9,0,0,1,17.1-7.2,22.3,22.3,0,0,1,8.9,1.8A22.8,22.8,0,0,1,474.7,227a22.3,22.3,0,0,1,1.8,8.9v17.2Zm-22.8-.2a15.3,15.3,0,0,0,8.2-2.2,15.3,15.3,0,0,0,7.5-13.5,15.6,15.6,0,0,0-15.8-15.7,14.7,14.7,0,0,0-6.1,1.3,15.4,15.4,0,0,0-2.7,1.4,14.5,14.5,0,0,0-2.3,1.9,19.7,19.7,0,0,0-3.4,5,16.2,16.2,0,0,0-1.2,6.1,15.3,15.3,0,0,0,1.2,6.1,15.8,15.8,0,0,0,8.4,8.4A16.3,16.3,0,0,0,453.6,252.9Z" fill="#fff"/><path d="M513.7,257.1a4.2,4.2,0,0,1-1.5,3.3,4.1,4.1,0,0,1-3.5,1.1l-2.8-.7-2.6-.9a19.7,19.7,0,0,1-7.4-5,19.2,19.2,0,0,1-4.5-7.5A29.2,29.2,0,0,1,490,238V222.8h-5.6a4.3,4.3,0,0,1-4.4-4.4,4.3,4.3,0,0,1,1.3-3.2,4.2,4.2,0,0,1,3.1-1.3h1.3a4.3,4.3,0,0,0,4.4-4.4v-5.2a4.5,4.5,0,0,1,4.5-4.5,4.1,4.1,0,0,1,3.1,1.3,4.4,4.4,0,0,1,1.3,3.1V214h13.9a4.2,4.2,0,0,1,3.1,1.3,4.3,4.3,0,0,1,1.3,3.2,4.3,4.3,0,0,1-4.4,4.4H498.8V238a21.7,21.7,0,0,0,.8,5.8,12.2,12.2,0,0,0,2.4,4.7,11.7,11.7,0,0,0,4.6,3.2,10.1,10.1,0,0,0,3.4,1,3.9,3.9,0,0,1,2.7,1.5A4.5,4.5,0,0,1,513.7,257.1Z" fill="#fff"/><rect x="357.5" y="200.6" width="8.5" height="16.59" rx="4.3" ry="4.3" fill="#100e0c"/><path d="M335.8,93.6a8.6,8.6,0,0,0-8.6-7.8h-0.9L203.7,99a8.6,8.6,0,0,0-7.5,10.6c0.2,0.9.5,2.1,1,3.5-18.5-10.4-44.2-19.2-69.8-16.5a4.3,4.3,0,1,0,.9,8.6c32-3.4,64.3,12.9,80,25.7,8,7.8,18.6,12,30.7,12a58.4,58.4,0,0,0,6.2-.3l49.2-5.3c12.6-1.4,23-5.5,30.2-12.1S337.2,106.5,335.8,93.6Zm-42.2,35.2L244.4,134l-5.3.3c-9.3,0-16.2-2.8-21.5-6.8l-3.4-3a37.4,37.4,0,0,1-9.6-17L327.2,94.4C329.5,116.1,313.9,126.6,293.6,128.8Z" fill="#fff"/><path d="M269.9,165.3H244.3a4.3,4.3,0,1,1,0-8.6h25.6A4.3,4.3,0,1,1,269.9,165.3Z" fill="#fff"/><path d="M288.2,165.3h-1.1a4.3,4.3,0,0,1,0-8.6h1.1A4.3,4.3,0,1,1,288.2,165.3Z" fill="#fff"/><path d="M255.6,12.7a2.7,2.7,0,0,1-2.6-2.1l-1.7-7.4a2.7,2.7,0,0,1,5.2-1.1l1.7,7.4a2.7,2.7,0,0,1-2,3.2h-0.6Z" fill="#100e0c"/><path d="M272.5,13.7a2.7,2.7,0,0,1-2.3-4l3.7-6a2.7,2.7,0,1,1,4.5,2.7l-3.7,6A2.7,2.7,0,0,1,272.5,13.7Z" fill="#fff"/><path d="M239.9,20.5a2.6,2.6,0,0,1-1.5-.5l-6.5-4.4a2.7,2.7,0,1,1,3-4.4l6.5,4.4A2.7,2.7,0,0,1,239.9,20.5Z" fill="#fff"/><circle cx="286.4" cy="41.6" r="3.1" transform="matrix(1, 0, 0, 1, -0.2, 1.39)" fill="#1d1d1b"/><circle cx="229.2" cy="49.1" r="3.1" transform="translate(-0.2 1.1) rotate(-0.3)" fill="#1d1d1b"/><path d="M234,76.9h-0.5c-7.9-1.4-11.5-4.8-14.7-7.8s-5.6-5.3-11.9-6.4a2.8,2.8,0,1,1,1-5.5c7.9,1.4,11.5,4.8,14.7,7.8s5.6,5.3,11.9,6.4A2.8,2.8,0,0,1,234,76.9Z" fill="#fff"/><path d="M297.1,30.7a2.2,2.2,0,0,1-2.1-1.6c-0.1-.4-2.5-9,1.8-14.8S309.9,8,310.2,8a2.2,2.2,0,0,1,2.2,1.6c0.1,0.4,2.5,9-1.8,14.8s-13.1,6.3-13.5,6.3h-0.1Zm11.5-18.1c-2.3.4-6.2,1.5-8.2,4.2s-1.8,6.8-1.4,9.2c2.3-.4,6.2-1.5,8.2-4.2S308.9,15,308.5,12.7Z" fill="#fff"/><path d="M216.7,36.6a10.6,10.6,0,0,1-16.7.8,2.5,2.5,0,1,1,3.8-3.2,5.6,5.6,0,0,0,8.5-7.2,2.5,2.5,0,1,1,3.8-3.2A10.6,10.6,0,0,1,216.7,36.6Z" fill="#fff"/><path d="M279.3,56.1a2.8,2.8,0,0,0-.8-1.2,2.8,2.8,0,0,0-1.4-.7,2.7,2.7,0,0,0-2.8.9l-1.2,1.2-1.3,1.2a14.3,14.3,0,0,1-4.6,2.2,13.8,13.8,0,0,1-5.7.4,14,14,0,0,1-9.4-5.3,13.8,13.8,0,0,1-2.6-5.1,13.9,13.9,0,0,1-.4-5.7,14.7,14.7,0,0,1,1.8-5.2,14.6,14.6,0,0,1,8.7-6.7,14.1,14.1,0,0,1,5.8-.4,13.6,13.6,0,0,1,3.7,1,2.8,2.8,0,0,0,1.6.2,2.8,2.8,0,0,0,1.5-.7A2.7,2.7,0,0,0,273,31a3,3,0,0,0,.1-1.4,3.1,3.1,0,0,0-.6-1.3,2.8,2.8,0,0,0-1.1-.9,19.7,19.7,0,0,0-13.3-.9,19.7,19.7,0,0,0-7.1,3.6,20.4,20.4,0,0,0-7.5,13.2,20.4,20.4,0,0,0,4.1,15.1,21,21,0,0,0,13.2,7.5l2.6,0.2a20.3,20.3,0,0,0,5.4-.7,20,20,0,0,0,7.4-3.8l1.4-1.3,1.3-1.4a2.9,2.9,0,0,0,.6-1.4A3.1,3.1,0,0,0,279.3,56.1Z" fill="#fff"/><path d="M298.8,68.9h-2.6a2.5,2.5,0,0,1,.4-5h0.5c2,0.2,3,.2,4.1-0.8s1-2,.8-4.1-0.5-5.3,2.3-8,5.8-2.4,8.1-2.2,3,0.2,4.1-.8,1-2,.8-4.1-0.5-5.3,2.3-8.1,5.8-2.4,8.1-2.2h0.7a2.5,2.5,0,0,1-.4,5h-0.8c-2-.2-3-0.2-4.1.8s-1,2-.8,4.1,0.5,5.3-2.3,8.1-5.8,2.4-8.1,2.2-3-.2-4.1.8-1,2-.8,4.1,0.5,5.3-2.3,8A7.9,7.9,0,0,1,298.8,68.9Z" fill="#fff"/></svg>