<?xml version="1.0" encoding="utf-8"?>
<!-- Generator: Adobe Illustrator 20.1.0, SVG Export Plug-In . SVG Version: 6.00 Build 0)  -->
<svg version="1.1" id="Calque_1" xmlns="http://www.w3.org/2000/svg" xmlns:xlink="http://www.w3.org/1999/xlink" x="0px" y="0px"
	 viewBox="0 0 473.5 142" style="enable-background:new 0 0 473.5 142;" xml:space="preserve">
<style type="text/css">
	.st0{fill:#FFFFFF;}
	.st1{fill:none;}
	.st2{opacity:0.2;fill:none;}
	.st3{fill:none;stroke:#FFFFFF;stroke-width:5;stroke-miterlimit:10;}
	.st4{opacity:0.13;}
	.st5{clip-path:url(#SVGID_2_);}
</style>
<title>logo</title>
<path class="st0" d="M143.4,36.6c0.7-1.5,2.2-2.2,4.7-2.2l3.3,0.3l2.7,0.3c1.1,0,2.2-0.5,2.9-1.3c0.8-0.9,1.2-2,1.2-3.2
	c0-3.9-4-5.8-11.9-5.8c-4.5,0-8,0.6-10.6,1.7c-2.5,1-4.5,3-5.5,5.5c-1.2,3.3-1.7,6.7-1.6,10.2V46h-3.2c-4.5,0-6.8,1.6-6.8,4.9
	c-0.1,1.4,0.5,2.7,1.6,3.6c1.4,1,3,1.5,4.7,1.4h3.7v56.2c0,0.2,0,0.4,0,0.6c0,3.8,3,6.8,6.8,6.8s6.8-3,6.8-6.8l0,0v-0.2l0,0V55.8
	h3.3c1.9,0.1,3.9-0.2,5.7-0.9c1.4-0.6,2.1-2,2.1-4.2s-2.5-3.8-7.6-4.7h-3.3v-3.2C142.3,40.7,142.6,38.6,143.4,36.6z"/>
<path class="st0" d="M203,52.5c-2.4-2.5-5.4-4.4-8.6-5.7c-7.2-2.7-15.2-2.7-22.4,0c-3.2,1.2-6.2,3.1-8.6,5.6
	c-2.4,2.5-4.2,5.5-5.4,8.8c-1.3,3.6-1.9,7.5-1.9,11.3s0.6,7.6,1.9,11.2c2.4,6.6,7.5,11.9,14,14.5c3.5,1.4,7.3,2.1,11.1,2
	c3.8,0,7.6-0.6,11.2-2c3.2-1.3,6.2-3.2,8.6-5.7c2.4-2.5,4.3-5.5,5.5-8.8c1.3-3.6,1.9-7.4,1.9-11.2c0-3.8-0.6-7.6-1.9-11.2
	C207.2,58,205.4,55,203,52.5z M193,85.4c-2.3,3.1-6,4.8-9.9,4.7c-2.5,0.1-5-0.7-7.1-2.1c-2.1-1.5-3.7-3.7-4.6-6.1
	c-1.1-3-1.7-6.1-1.6-9.3c-0.1-3.2,0.5-6.4,1.6-9.4c0.9-2.5,2.6-4.6,4.7-6.1c2.1-1.4,4.5-2.1,7-2.1c3.9-0.2,7.5,1.6,9.9,4.6
	c2.5,3.1,3.7,7.4,3.7,13C196.7,78.2,195.5,82.5,193,85.4z"/>
<path class="st0" d="M254.3,47c-2.6-1.4-5.4-2.1-8.3-2.1c-2.5-0.1-4.9,0.6-6.9,2.1c-2,1.8-3.7,3.9-5,6.3c0.1-2.2-0.5-4.4-1.6-6.3
	c-1-1.4-2.6-2.1-4.9-2.1c-4.4,0-6.6,3.1-6.6,9.2v37.8c0,2.7,0.6,4.8,1.9,6.2c1.2,1.4,3,2.1,4.8,2.1c1.9,0,3.6-0.7,4.9-2.1
	c1.3-1.4,1.9-3.5,1.9-6.2V80.5c0-4.1,0.1-7.5,0.4-10.4c0.2-2.5,0.6-5,1.4-7.4c0.5-1.8,1.5-3.4,2.9-4.7c1.4-1.1,3.1-1.7,4.9-1.6
	c1.7,0,3.5,0.3,5.1,0.9c1.2,0.4,2.4,0.7,3.6,0.9c1.4,0,2.7-0.6,3.7-1.6c1.1-1.1,1.7-2.6,1.7-4.1C258.3,50.2,257,48.4,254.3,47z"/>
<path class="st0" d="M309.5,74.3c1.9-1,2.9-3.2,2.9-6.7c0-3.8-1-7.6-2.8-10.9c-2-3.6-5-6.7-8.6-8.7c-4.2-2.4-8.9-3.5-13.7-3.4
	c-3.8,0-7.6,0.6-11.2,2c-3.2,1.2-6.1,3.2-8.5,5.7c-2.3,2.6-4.1,5.6-5.2,8.9c-1.2,3.6-1.8,7.4-1.8,11.2c0,8.5,2.4,15.3,7.3,20.3
	s11.7,7.5,20.4,7.5c3.5,0.1,6.9-0.4,10.2-1.5c2.6-0.9,5.1-2.1,7.3-3.8c1.8-1.3,3.2-2.9,4.4-4.7c0.8-1.3,1.3-2.8,1.4-4.3
	c0.1-1.2-0.4-2.4-1.3-3.2c-1-0.8-2.2-1.2-3.4-1.1c-1.1-0.1-2.1,0.3-3,0.9l-4.1,3.8c-1.1,1-2.3,1.8-3.5,2.6c-1.2,0.8-2.5,1.4-3.9,1.8
	c-1.5,0.4-3,0.6-4.5,0.6c-4.9,0-9.4-2.8-11.4-7.3c-1.3-2.5-1.9-5.4-1.9-8.2h26.6C304,76,306.9,75.4,309.5,74.3z M274.6,68.1
	c0.5-4.6,1.8-8.1,4-10.4c2.2-2.3,5.2-3.6,8.4-3.5c3.2-0.1,6.4,1.2,8.6,3.5s3.5,5.8,3.8,10.5L274.6,68.1L274.6,68.1z"/>
<path class="st0" d="M360.8,44.8c-1.5-0.1-3.1,0.5-4.1,1.6c-1.2,1.7-2.1,3.5-2.7,5.5l-11.9,32.3L331,53.3c-0.7-2.3-1.6-4.4-2.8-6.5
	c-0.9-1.3-2.4-1.9-4.7-1.9c-1.1,0-2.2,0.3-3.2,0.9c-0.9,0.5-1.7,1.3-2.3,2.2c-0.5,0.8-0.8,1.8-0.8,2.8c0,0.7,0.1,1.4,0.3,2.1
	c0.2,0.8,0.5,1.6,0.8,2.4l0.9,2.4l13,32.1c1.3,3.1,2.2,5.1,2.8,6.2c0.6,1.1,1.5,2.1,2.5,2.9c1.3,0.9,3,1.4,4.6,1.3
	c1.3,0,2.6-0.2,3.8-0.8c1-0.6,1.9-1.4,2.6-2.4c0.8-1.2,1.4-2.4,1.9-3.7l1.4-3.5L365,57.3l1-2.4c0.3-0.7,0.6-1.5,0.8-2.2
	c0.2-0.7,0.3-1.4,0.3-2.1c0-1.5-0.7-3-1.8-4C364.1,45.4,362.5,44.8,360.8,44.8z"/>
<path class="st0" d="M421.7,74.3c1.9-1,2.9-3.2,2.9-6.7c0-3.8-1-7.6-2.8-10.9c-2-3.6-5-6.7-8.6-8.7c-4.2-2.4-8.9-3.5-13.7-3.4
	c-3.8,0-7.6,0.6-11.2,2c-3.2,1.2-6.1,3.2-8.5,5.7c-2.3,2.6-4.1,5.6-5.2,8.9c-1.2,3.6-1.8,7.4-1.8,11.2c0,8.5,2.4,15.3,7.3,20.3
	s11.7,7.5,20.4,7.5c3.5,0.1,6.9-0.4,10.2-1.5c2.6-0.9,5.1-2.1,7.3-3.8c1.7-1.3,3.2-2.9,4.4-4.7c0.8-1.3,1.3-2.8,1.4-4.3
	c0.1-1.2-0.4-2.4-1.3-3.2c-1-0.8-2.2-1.2-3.4-1.1c-1.1-0.1-2.1,0.3-3,0.9l-4.1,3.8c-1.1,1-2.3,1.8-3.5,2.6c-1.2,0.8-2.5,1.4-3.9,1.8
	c-1.5,0.4-3,0.6-4.5,0.6c-4.9,0-9.4-2.8-11.4-7.3c-1.3-2.5-1.9-5.4-1.9-8.2h26.6C416.2,75.9,419.1,75.4,421.7,74.3z M386.8,68.1
	c0.5-4.6,1.8-8.1,4-10.4c2.2-2.3,5.2-3.6,8.4-3.5c3.2-0.1,6.4,1.2,8.6,3.5s3.5,5.8,3.8,10.5L386.8,68.1L386.8,68.1z"/>
<path class="st0" d="M469.4,47c-2.6-1.4-5.4-2.1-8.3-2.1c-2.5-0.1-4.9,0.6-6.9,2.1c-2,1.8-3.7,3.9-5,6.3c0.1-2.2-0.5-4.4-1.6-6.3
	c-1-1.4-2.6-2.1-4.9-2.1c-4.4,0-6.6,3.1-6.6,9.2v37.8c0,2.7,0.6,4.8,1.9,6.2c1.2,1.4,3,2.1,4.8,2.1c1.9,0,3.6-0.7,4.9-2.1
	s1.9-3.5,1.9-6.2V80.5c0-4.1,0.1-7.5,0.4-10.4c0.2-2.5,0.6-5,1.4-7.4c0.5-1.8,1.5-3.4,2.9-4.7c1.4-1.1,3.1-1.7,4.9-1.6
	c1.7,0,3.5,0.3,5.1,0.9c1.2,0.4,2.4,0.7,3.6,0.9c1.4,0,2.7-0.6,3.7-1.6c1.1-1.1,1.7-2.6,1.7-4.1C473.4,50.2,472.1,48.4,469.4,47z"/>
<circle class="st1" cx="48.1" cy="72.6" r="48.1"/>
<circle class="st2" cx="48.1" cy="72.6" r="45.8"/>
<circle class="st3" cx="48.1" cy="72.6" r="45.8"/>
<g class="st4">
	<g>
		<g>
			<defs>
				<circle id="SVGID_1_" cx="48.1" cy="72.6" r="32.4"/>
			</defs>
			<clipPath id="SVGID_2_">
				<use xlink:href="#SVGID_1_"  style="overflow:visible;"/>
			</clipPath>
			<g class="st5">
				<polygon class="st0" points="190.2,-58 45.5,25.6 45.5,192.7 190.2,276.3 335,192.7 335,25.6 				"/>
			</g>
		</g>
	</g>
</g>
<path class="st0" d="M48.1,40.2c-17.9,0-32.4,14.5-32.4,32.4c0,17.9,14.5,32.4,32.4,32.4c17.9,0,32.4-14.5,32.4-32.4
	C80.5,54.7,66,40.2,48.1,40.2z M27.2,85.4V60.5l17.5,12.4L27.2,85.4z M45.4,85.4V60.5L63,72.9L45.4,85.4z M68.9,85.2h-4.3V61.1h4.3
	V85.2z"/>
</svg>
