<?xml version="1.0" encoding="utf-8"?>
<!-- Generator: Adobe Illustrator 16.0.0, SVG Export Plug-In . SVG Version: 6.00 Build 0)  -->
<!DOCTYPE svg PUBLIC "-//W3C//DTD SVG 1.1//EN" "http://www.w3.org/Graphics/SVG/1.1/DTD/svg11.dtd">
<svg version="1.1" id="Layer_1" xmlns="http://www.w3.org/2000/svg" xmlns:xlink="http://www.w3.org/1999/xlink" x="0px" y="0px"
	 width="326px" height="325.4px" viewBox="0 0 326 325.4" enable-background="new 0 0 326 325.4" xml:space="preserve">
<g>
	<defs>
		<rect id="SVGID_1_" width="326" height="325.4"/>
	</defs>
	<clipPath id="SVGID_2_">
		<use xlink:href="#SVGID_1_"  overflow="visible"/>
	</clipPath>
	<path clip-path="url(#SVGID_2_)" fill="#FBFBFA" d="M97,152.6c2.1,0.1,4.2,0.1,6.3,0.2c4.3,0,8.5,0,12.9,0c0,0.5,0.1,0.8,0.1,1.2
		c-0.3,3.3-0.9,6.6-1,9.9c-0.1,14-0.1,27.9,0,41.9c0,3.4,0.6,6.8,0.9,10.2c0,0.4,0.1,0.9,0.2,1.5H94.2c1.2-16.1,0.7-32.2,0.5-48.4
		c-0.2,0.3-0.6,0.6-0.7,1c-5.9,13.1-11.9,26.2-17.8,39.3c-0.9,2.1-1.6,4.3-2.2,6.5c-0.3,1.3-0.8,1.8-2.2,1.8c-3.7,0-7.3,0.1-11,0.1
		c-1.5,0-1.9-0.8-2.4-2.2c-1.8-4.8-3.8-9.6-5.8-14.3c-2.9-6.6-6-13.1-9.1-19.6c-1.9-4-3.7-7.9-5.6-11.9c-0.1-0.2-0.3-0.4-0.7-0.9
		c-0.1,0.8-0.2,1.3-0.2,1.7c0.1,12.9,0.1,25.8,0.3,38.8c0,2.6,0.5,5.2,0.9,8H23.7c1.5-10.7,0.9-21.5,0.9-32.2
		c0-10.7,0.7-21.5-1.3-32.3h28.6c2.3,8.3,6.6,15.7,10,23.5c2.5,5.8,5.3,11.5,8.1,17.6c0.4-0.5,0.8-0.9,1-1.3
		c5.1-11,10.2-22.1,15.3-33.1c0.7-1.5,1.1-3.2,1.6-4.8c0.4-1.3,1-2.1,2.6-2C92.5,152.9,94.7,152.7,97,152.6"/>
	<path clip-path="url(#SVGID_2_)" fill="#FAFBF9" d="M259.4,209.6c0.2,2.6,0.3,5.2,0.5,8h-22.4c0.2-1.4,0.6-2.8,0.6-4.1
		c0.2-4.6,0.3-9.3,0.3-13.9c0-9,0-18.1,0-27.1c0-0.8-0.1-1.7-0.1-2.5c0.5-5.2,0.2-10.3-0.8-15.4c-0.1-0.3-0.1-0.6-0.2-1.1h64.5v13.3
		c-13.8-1.2-27.6-0.2-41.3-0.6c-0.4,0-0.9,0.1-1.5,0.1v16.8c14.3-0.4,28.6,0.7,43-0.7v15c-2.7-0.3-5.2-0.8-7.7-0.8
		c-11.2-0.1-22.4-0.1-33.6-0.1c-0.6,0-1.6,0.6-1.6,0.9C259.1,201.4,259.3,205.5,259.4,209.6"/>
	<path clip-path="url(#SVGID_2_)" fill="#FDFAF9" d="M119.3,217.7c9.5-21.8,19.8-42.8,28.8-64.9c1.5,0,3.5,0,5.5,0
		c4.9,0,9.7,0,14.6,0c0.8,0,1.4-0.1,1.9,0.9c2.8,6.5,5.5,13,8.5,19.4c6.6,14.3,13.3,28.6,19.9,42.9c0.2,0.4,0.3,0.8,0.6,1.4
		c-0.7,0.1-1.1,0.2-1.6,0.2c-6.8,0-13.5,0-20.3,0c-1.5,0-1.9-0.6-2.4-1.9c-1.3-3.9-2.8-7.7-4.4-11.5c-0.2-0.5-1.1-1-1.6-1
		c-9.4-0.1-18.8,0-28.1-0.1c-1.2,0-1.6,0.8-1.9,1.6c-1.5,3.8-2.8,7.7-4.3,11.6c-0.2,0.5-0.8,1.2-1.2,1.2
		C128.7,217.8,124.2,217.7,119.3,217.7 M165.4,193.1c-3.5-8-6.9-15.7-10.3-23.5c-0.2,0-0.4,0.1-0.5,0.1c-3.3,7.7-6.6,15.4-10,23.4
		H165.4z"/>
	<path clip-path="url(#SVGID_2_)" fill="#FDFBF9" d="M223.9,217.7H201c1.8-10.7,0.9-21.4,0.9-32.1c0-10.7,0.8-21.5-1.4-32.3h23.2
		c-0.2,0.9-0.4,1.7-0.4,2.6c-0.2,3.1-0.5,6.3-0.5,9.4c-0.1,12,0,24,0,36c0,5,0.1,10,1.1,14.9C224,216.5,223.9,217,223.9,217.7"/>
</g>
<polygon fill="none" stroke="#FFFFFF" stroke-width="5" stroke-miterlimit="10" points="163.1,32 288,262.4 36.4,262.4 "/>
<g>
	<defs>
		<rect id="SVGID_3_" width="326" height="325.4"/>
	</defs>
	<clipPath id="SVGID_4_">
		<use xlink:href="#SVGID_3_"  overflow="visible"/>
	</clipPath>
	
		<rect x="2.5" y="2.5" clip-path="url(#SVGID_4_)" fill="none" stroke="#FFFFFF" stroke-width="5" stroke-miterlimit="10" width="321" height="320.4"/>
</g>
</svg>
