<svg xmlns="http://www.w3.org/2000/svg" width="90.42" viewBox="0 0 90.42 68.44"><path fill="white" d="M9.73 55.945c-.018-.307-.128-.6-.333-.88-.203-.282-.48-.533-.83-.754-.35-.22-.753-.396-1.213-.523-.458-.128-.943-.19-1.455-.19-.53 0-1.026.062-1.495.19-.47.127-.87.303-1.212.524-.34.222-.613.485-.818.792-.203.306-.306.63-.306.97s.128.652.38.932c.257.282.577.524.96.728s.795.374 1.236.512c.444.135.862.23 1.253.28.783.085 1.518.268 2.207.548.69.282 1.29.635 1.8 1.06.512.426.912.923 1.2 1.495.29.57.435 1.187.435 1.85 0 .682-.15 1.324-.446 1.928-.298.605-.71 1.128-1.238 1.57-.53.443-1.142.797-1.84 1.06-.698.265-1.448.396-2.247.396-.8 0-1.548-.127-2.248-.382-.696-.255-1.31-.608-1.837-1.06-.53-.45-.94-.974-1.24-1.57C.15 64.82 0 64.184 0 63.502c0-.206.073-.38.218-.524.145-.145.32-.217.523-.217s.38.072.523.216c.145.144.217.318.217.523 0 .476.11.923.333 1.34.22.417.523.778.906 1.085s.832.55 1.353.728c.518.18 1.076.27 1.672.27s1.157-.09 1.686-.27c.528-.18.99-.42 1.393-.728.4-.307.71-.668.933-1.085.22-.417.313-.864.28-1.34-.035-.443-.17-.856-.408-1.24-.24-.38-.546-.722-.92-1.02-.375-.297-.804-.545-1.29-.74-.484-.194-.99-.336-1.52-.42-.715-.053-1.4-.19-2.056-.41-.653-.22-1.23-.506-1.723-.855-.495-.35-.892-.758-1.19-1.226s-.444-.983-.444-1.544c0-.562.14-1.085.42-1.57.282-.485.668-.91 1.162-1.277.494-.364 1.067-.654 1.724-.867.654-.214 1.357-.32 2.106-.32.748 0 1.45.106 2.105.32.656.212 1.23.502 1.725.868.493.367.88.793 1.162 1.277.28.485.42 1.01.42 1.57 0 .222-.076.41-.228.562-.153.152-.34.23-.562.23s-.403-.082-.547-.243c-.145-.162-.23-.38-.244-.652zM25.18 67.358c.083.204.083.405 0 .6-.086.196-.23.337-.436.422-.203.084-.403.08-.6-.014-.195-.092-.337-.232-.42-.42l-1.022-2.35h-8.73l-1 2.35c-.084.187-.224.328-.42.42-.196.094-.396.098-.6.014-.204-.085-.35-.226-.435-.422-.085-.195-.085-.396 0-.6l6.104-14.733c.053-.135.146-.268.28-.396.138-.13.29-.19.46-.19.17 0 .323.058.46.177.137.12.24.255.306.408l6.053 14.733zm-10.547-3.345h7.43L18.364 55l-3.73 9.013zM36.617 57.988c0-.597-.114-1.158-.344-1.685-.23-.53-.545-.993-.945-1.393-.4-.4-.864-.716-1.392-.945-.526-.23-1.09-.345-1.685-.345-.596 0-1.157.115-1.685.345-.528.23-.986.545-1.38.945-.39.4-.7.863-.93 1.393-.23.526-.346 1.088-.346 1.685v9.65c0 .22-.078.41-.23.562-.153.153-.342.23-.563.23-.22 0-.41-.077-.56-.23-.154-.153-.23-.34-.23-.56v-9.652c0-.818.153-1.588.46-2.312.306-.724.728-1.354 1.264-1.89.536-.535 1.167-.96 1.89-1.277.724-.314 1.494-.472 2.312-.472s1.588.157 2.31.47c.724.317 1.353.743 1.892 1.278.534.536.96 1.166 1.276 1.89.313.724.472 1.493.472 2.312v9.65c0 .22-.077.41-.23.562s-.34.23-.56.23c-.224 0-.41-.077-.563-.23-.155-.153-.232-.34-.232-.56v-9.652zM39.132 52.83c0-.22.077-.408.23-.562.153-.154.34-.23.562-.23h10.52c.222 0 .408.076.562.23.153.153.23.34.23.56 0 .224-.077.41-.23.563s-.34.23-.562.23h-4.47v14.02c0 .22-.076.408-.228.56-.153.154-.343.23-.562.23-.222 0-.41-.076-.562-.23-.154-.152-.23-.34-.23-.56V53.62h-4.467c-.223 0-.41-.075-.562-.228s-.23-.34-.23-.563zM52.63 52.83c0-.22.077-.408.23-.562.154-.154.34-.23.56-.23h9.04c.22 0 .407.076.562.23.152.153.23.34.23.56 0 .224-.078.41-.23.563-.155.154-.342.23-.562.23h-8.247v5.77h5.924c.22 0 .407.078.562.23.152.153.228.34.228.563 0 .222-.076.408-.23.563-.153.152-.34.23-.56.23h-5.925v5.87h8.247c.22 0 .407.078.562.23.152.153.23.34.23.562 0 .22-.078.408-.23.56-.155.154-.342.23-.562.23h-9.04c-.22 0-.406-.076-.56-.23-.152-.152-.23-.34-.23-.56v-14.81z"></path><path fill="white" d="M64.504 60.235c0 .9.172 1.753.513 2.552.34.802.804 1.5 1.392 2.095.586.597 1.278 1.067 2.08 1.417.8.348 1.65.522 2.553.522.952 0 1.843-.183 2.668-.55.827-.365 1.538-.87 2.134-1.52.135-.152.31-.254.523-.306.212-.05.403-.016.574.104.188.153.28.36.28.624 0 .266-.074.48-.228.652-.75.817-1.633 1.45-2.655 1.902s-2.118.678-3.294.678c-1.123 0-2.18-.213-3.167-.64-.985-.426-1.848-1.008-2.577-1.75-.735-.74-1.313-1.607-1.738-2.603-.427-.995-.64-2.055-.64-3.178 0-1.124.213-2.184.64-3.18.426-.995 1.003-1.864 1.737-2.604.728-.74 1.59-1.328 2.576-1.762.987-.435 2.044-.65 3.167-.65 1.14 0 2.21.22 3.204.663.996.444 1.87 1.048 2.617 1.814.137.136.238.305.306.51.068.205.044.4-.075.588-.138.204-.338.315-.6.332-.265.018-.49-.068-.678-.256-.612-.526-1.328-1.004-2.145-1.43-.817-.425-1.694-.64-2.63-.64-.903 0-1.753.177-2.554.524-.8.35-1.493.825-2.08 1.43-.588.605-1.052 1.307-1.392 2.106-.34.803-.512 1.655-.512 2.557zM78.573 52.855c0-.22.077-.408.23-.562.152-.153.34-.23.562-.23s.408.077.562.23c.15.153.23.34.23.562v7.227h8.68v-7.227c0-.22.076-.408.23-.562.153-.153.34-.23.562-.23.22 0 .406.077.56.23.153.153.23.34.23.562V67.64c0 .22-.076.408-.23.56-.153.154-.34.23-.56.23-.224 0-.41-.076-.564-.23-.153-.152-.23-.34-.23-.56v-5.975h-8.68v5.975c0 .22-.078.408-.23.56-.153.154-.34.23-.56.23s-.41-.076-.563-.23c-.153-.152-.23-.34-.23-.56V52.855z"></path><path fill-rule="evenodd" clip-rule="evenodd" fill="#FFF" d="M38.993 0H51.99v42.995H38.994V0z"></path><path fill-rule="evenodd" clip-rule="evenodd" fill="#FFF" d="M66.99 14.998v13H23.994v-13H66.99z"></path></svg>