<svg id="we-logo-short" width="100%" height="100%" viewBox="0 0 154 162" version="1.1" xmlns="http://www.w3.org/2000/svg" xmlns:xlink="http://www.w3.org/1999/xlink" xml:space="preserve" style="fill-rule:evenodd;clip-rule:evenodd;stroke-linejoin:round;stroke-miterlimit:1.41421;"><path id="we-hexagone-white" d="M61.812,3.871l-49.478,28.117c-7.608,4.325 -12.334,12.446 -12.334,21.197l0,54.725c0,8.75 4.726,16.871 12.334,21.196l49.478,28.114c4.545,2.584 9.634,3.872 14.73,3.872c5.09,0 10.185,-1.291 14.726,-3.872l49.476,-28.114c7.608,-4.325 12.334,-12.446 12.334,-21.196l0,-54.725c0,-8.751 -4.726,-16.872 -12.334,-21.197l-49.478,-28.119c-4.542,-2.579 -9.633,-3.869 -14.725,-3.869c-5.092,0 -10.184,1.29 -14.729,3.871ZM66.117,149.647l-49.476,-28.118c-4.89,-2.78 -7.928,-7.999 -7.928,-13.62l0,-54.725c0,-5.621 3.038,-10.84 7.928,-13.621l49.476,-28.114c6.43,-3.652 14.418,-3.652 20.841,0l49.479,28.114c4.89,2.781 7.928,8 7.928,13.621l0,54.725c0,5.621 -3.038,10.84 -7.928,13.62l-49.476,28.115c-3.216,1.827 -6.819,2.74 -10.425,2.74c-3.603,0 -7.206,-0.913 -10.419,-2.737Z" style="fill:white;fill-rule:nonzero;opacity:0;"/><path id="we-hexagone" d="M61.812,3.871l-49.478,28.117c-7.608,4.325 -12.334,12.446 -12.334,21.197l0,54.725c0,8.75 4.726,16.871 12.334,21.196l49.478,28.114c4.545,2.584 9.634,3.872 14.73,3.872c5.09,0 10.185,-1.291 14.726,-3.872l49.476,-28.114c7.608,-4.325 12.334,-12.446 12.334,-21.196l0,-54.725c0,-8.751 -4.726,-16.872 -12.334,-21.197l-49.478,-28.119c-4.542,-2.579 -9.633,-3.869 -14.725,-3.869c-5.092,0 -10.184,1.29 -14.729,3.871ZM66.117,149.647l-49.476,-28.118c-4.89,-2.78 -7.928,-7.999 -7.928,-13.62l0,-54.725c0,-5.621 3.038,-10.84 7.928,-13.621l49.476,-28.114c6.43,-3.652 14.418,-3.652 20.841,0l49.479,28.114c4.89,2.781 7.928,8 7.928,13.621l0,54.725c0,5.621 -3.038,10.84 -7.928,13.62l-49.476,28.115c-3.216,1.827 -6.819,2.74 -10.425,2.74c-3.603,0 -7.206,-0.913 -10.419,-2.737Z" style="fill:url(#wegrad1);fill-rule:nonzero;"/><path d="M104.162,59.568c-0.271,0 -0.514,0.021 -0.777,0.026l0.011,-0.008c-0.061,0 -0.119,0.013 -0.181,0.014c-12.774,0.332 -16.631,7.683 -17.808,17.582l-0.114,0.951l-1.651,12.541c-0.487,3.165 -1.377,3.974 -3.241,3.974c-1.944,0 -2.755,-0.809 -3.241,-3.974l-3.159,-23.158c-0.891,-6.162 -3.403,-7.948 -8.667,-7.948c-5.672,0 -7.777,2.274 -8.588,7.948l-3.185,23.177c-0.487,3.165 -1.378,3.974 -3.242,3.974c-1.943,0 -2.754,-0.809 -3.241,-3.974l-3.82,-27.866c-0.258,-1.868 -1.853,-3.259 -3.737,-3.259l-1.458,0.088c-1.243,0 -2.197,1.104 -2.019,2.336l4.102,28.969c1.053,7.056 2.019,10.697 10.2,10.697c7.29,0 9.316,-3.892 10.286,-10.786l2.755,-20.931c0.407,-2.754 0.732,-3.404 1.947,-3.404c1.294,0 1.619,0.65 2.023,3.404l2.675,20.931c0.97,6.894 3.078,10.786 10.369,10.786c4.219,0 6.727,-0.96 8.319,-2.829c2.724,1.904 6.77,2.781 12.388,2.781c4.029,0 8.661,-0.595 12.368,-1.732c1.066,-0.327 1.869,-1.283 1.998,-2.36l0.267,-2.473c0.157,-1.313 -0.975,-2.249 -2.284,-1.905c-3.35,0.882 -7.919,1.508 -11.547,1.508c-8.196,0 -11.326,-2.354 -10.621,-8.278l0.145,-1.132l1.154,-9.717l0.001,0l0.099,-0.934c0.656,-5.517 4.422,-8.22 10.508,-8.22c6.089,0 9.141,3.188 8.485,8.705l-0.241,1.785l-10.326,0c-1.614,0 -2.968,1.221 -3.133,2.828l-0.227,2.216c-0.098,0.948 0.646,1.772 1.599,1.772l14.223,0c1.857,0 3.582,-1.399 4.005,-3.244c0.346,-1.505 0.548,-2.997 0.702,-4.059c1.442,-9.95 -3.471,-16.784 -14.121,-16.802" style="fill:#fff;fill-rule:nonzero;"/><defs><linearGradient id="wegrad1" x1="0" y1="0" x2="1" y2="0" gradientUnits="userSpaceOnUse" gradientTransform="matrix(0,172.837,-172.837,0,76.5391,-5.53176)"><stop offset="0%" style="stop-color:#21dab0;stop-opacity:1"/><stop offset="100%" style="stop-color:#3356ec;stop-opacity:1"/></linearGradient></defs></svg>