<svg id="svg2" xmlns="http://www.w3.org/2000/svg" viewBox="0 0 1678 1678.7">
  <title>axa2</title>
  <path id="path2169" d="M1678,1678.7h0S1,1678.4.7,1678,0,1506.7,0,1506.7H36c33,0,36.1-.1,37.6-1.7s5.2-7.7,9.8-15c11.1-18,29.5-44.2,41.2-58.7,9.7-12,51.4-66.3,112.2-146l32.8-43H517.4l12.3,42.5,14.2,49.3,1.9,6.8-20.6,26.7c-63.7,82.6-73.5,94.4-98.2,118.5-11.3,11-17.1,17.4-16.9,18.5s4.6,1.7,58.6,2c32.1.1,58.9-.1,59.6-.5s4.8-7.6,9-16c8.1-16,16.1-28.1,33-49.6l11.2-14.2c.6-.8,1.4-1.4,1.7-1.4s7.4,21.1,12,37.1c1.4,4.7,3.7,16.1,5.2,25.3s3.4,17.4,4.2,18.2,11.2,1.4,60.8,1.4H725l1.4-2.2c.8-1.2,4.7-8.5,8.8-16.2a226.2,226.2,0,0,1,15-24.2c10.9-14.6,30-36.6,30.9-35.6s12.3,39.4,15.4,57.2c2,11.7,3.9,19.7,4.7,20.2s149.8,1.2,152.2.3a2.4,2.4,0,0,0,1.6-1.8c0-.7-3.9-8.1-8.6-16.6-18.2-32.7-16.9-29.2-52.3-139.6-8.8-27.6-16.1-50.7-16.1-51.3s8.6-13.3,19.1-28.1l19.1-26.9,124.6.3,124.6.3,18.3,59c27.1,87.3,43.1,139.8,45.8,150.1a229.4,229.4,0,0,1,6.2,41.5c.4,7.5,1.1,11.5,2,12.4s13.5,1.4,79.3,1.4c42.8,0,78.6-.3,79.4-.6s2-2-2-7.2c-7.3-9.5-19.3-37.3-34.2-79.3-8.7-24.5-27.3-80.9-52.2-158.8-8.9-27.7-17.5-54-19.1-58.5-5.7-15.3-81.7-280.9-83.3-290.6-.8-5.2-2-14.2-2.6-20s-1.3-11.3-1.6-12.2-4.4-1.7-62.9-1.7h-62.4l-4.4,9.3c-5.8,12.2-21.3,38.8-29.5,50.8-22.1,32-195.7,261-196.8,259.7s-18.4-63.3-18-64.2,37.5-48.4,123.5-157.5c40.3-51.1,59.4-73.1,76-87.5,4.4-3.8,8.1-7.8,8.1-8.7s-3.7-1.8-64-1.8H907l-.5,2.3c-.3,1.2-1,5-1.6,8.4-2.3,13.7-6.6,22.7-18.2,37.8-18.6,24.4-97.6,123.9-98.8,124.3s-2.7-6.6-5-15c-6.9-24.8-24.4-86.8-30.4-107.4-5.3-18.3-7-27.9-7.9-45.4l-.2-4.5-75.9-.3c-46.5-.2-76.3.1-76.9.7s.8,4.2,3.6,9.8c12,23.3,17.6,39,54.8,153.4,20.4,62.8,36.9,115,36.7,115.9-.7,2.7-39,51.1-39.8,50.3s-82.6-265.8-84.4-276.2c-.8-4.7-2.4-17.7-3.5-29s-2.2-21.5-2.5-22.8l-.5-2.2H424.4L410.8,905c-7.5,15-17,32.9-21.1,39.9-9.5,15.9-69.7,96.6-156.6,209.9l-55,72c-46.9,61.8-90.7,117.9-139.9,179.4L2.3,1450.6l-2.2,2.6V0H1580.4s-171.6,224-516.2,670C997.5,756.2,943,827.6,943,828.6a2.8,2.8,0,0,0,2.3,2.4c3,.8,91.6.8,94.5,0s3.9-2.5,137.7-176.4l99-128.5C1330.2,456.5,1676.6.5,1677.1,0m-986,1343.6c-9-28-13-41.7-12.5-42.8,1.4-2.8,39.6-52,40.4-52s2.2,4.4,4,9.8c6.2,18.7,18.7,53.8,21.7,61l3.1,7.3-5.5,7.7c-16.6,23.2-36.7,50.2-37.2,50.2S698.4,1366.2,691.1,1343.6ZM332.7,1163.5l20.9-26.2c26.9-33.7,54.3-69.4,69.1-90.2,12.6-17.6,27.2-39.9,27.2-41.5a.9.9,0,0,1,1-.9c.6,0,1,4.5,1,11.4a146.2,146.2,0,0,0,1.5,20.2c1.7,9.8,10.9,41,27.6,93,6,18.8,10.9,34.4,10.9,34.8s-36.1.6-80.1.6C347.9,1164.7,332,1164.5,332.7,1163.5Zm646-1c51.4-63.3,93.9-119.7,111.2-147.6l6.8-11,.5,14.7c.3,8.1,1.2,17.9,2.1,21.7,2.1,9.4,12,42.4,25.7,85,6.2,19.3,11.4,36,11.7,37.3l.5,2.3H976.9Z" fill="#fff"/>
</svg>
