<svg id="Calque_1" data-name="Calque 1" xmlns="http://www.w3.org/2000/svg" viewBox="0 0 49 42"><defs><style>.cls-1{fill:#fff;}</style></defs><title>logoHeader</title><path class="cls-1" d="M3.54,7.15A3.45,3.45,0,0,1,0,3.61,3.49,3.49,0,0,1,3.54.06,3.49,3.49,0,0,1,7.09,3.61,3.49,3.49,0,0,1,3.54,7.15ZM5.8,41.29H1.29a0.55,0.55,0,0,1-.64-0.64V12.95a0.55,0.55,0,0,1,.64-0.64H5.8a0.55,0.55,0,0,1,.64.64v27.7A0.55,0.55,0,0,1,5.8,41.29Z"/><path class="cls-1" d="M35,41.29H31.1a0.55,0.55,0,0,1-.64-0.64V39.88A0.58,0.58,0,0,0,30,39.17c-0.84,0-2.71,2.13-6.44,2.13-6.51,0-11.14-4.44-11.14-11V23.25a10.59,10.59,0,0,1,11-11c3.22,0,5.09,2.13,6,2.13a0.58,0.58,0,0,0,.45-0.71V1.35A0.55,0.55,0,0,1,30.46.71H35a0.58,0.58,0,0,1,.64.64v39.3A0.55,0.55,0,0,1,35,41.29Zm-5.15-18a5.8,5.8,0,1,0-11.6,0v7.09a5.8,5.8,0,1,0,11.6,0V23.25Z"/><path class="cls-1" d="M45.46,24.54A3.49,3.49,0,0,1,41.91,21a3.45,3.45,0,0,1,3.54-3.54A3.54,3.54,0,0,1,45.46,24.54Zm0,17.39a3.42,3.42,0,0,1-3.54-3.54,3.54,3.54,0,0,1,7.09,0A3.46,3.46,0,0,1,45.46,41.94Z"/></svg>