<svg id="Calque_1" data-name="Calque 1" xmlns="http://www.w3.org/2000/svg" viewBox="0 0 154.4 33.7">
  <title>pixorigin</title>
  <g>
    <circle cx="70.4" cy="15.4" r="12.7" fill="none" stroke="#FFF" stroke-width="4.75"/>
    <circle cx="69" cy="17.2" r="12.7" fill="none" stroke="#FFF" stroke-width="4.75"/>
    <circle cx="66.9" cy="16.2" r="12.7" fill="none" stroke="#FFF" stroke-width="4.75"/>
    <path d="M556.3,78.3l-3,5-3.1-5h-6.8l6.4,8.8-7.2,10.1h6.8l3.9-5.9,3.8,5.9H564l-7.3-10.1,6.4-8.8ZM540.6,72h-5.7v4.3h5.7Zm0,6.3h-5.7V97.2h5.7Z" fill="white" transform="translate(-512.2 -71.2)"/>
    <path d="M650.5,78.1h-1V97.4h1V86.3c0-4.6,2.9-7.3,7.5-7.4a7.7,7.7,0,0,1,5.2,1.7c1.4,1.3,2.3,3.3,2.3,6.5V97.4h1V87.2c0-3.3-.9-5.8-2.7-7.3A8.8,8.8,0,0,0,658,78c-2.9-.1-6.3,1.3-7.4,4h-.1Zm-6.4-6.9h-1v3.2h1Zm0,6.9h-1V97.4h1Zm-7.3,9.7a8.8,8.8,0,1,1-8.8-8.8,8.6,8.6,0,0,1,8.8,8.8M619.2,99.2a9.9,9.9,0,0,0,9.1,5.7,9.6,9.6,0,0,0,9.4-9.9V78.1h-1v5.1h-.1c-.9-2.4-4.1-5.2-8.6-5.2a9.7,9.7,0,1,0,0,19.4,9.2,9.2,0,0,0,8.6-5.1h.1v2.7a8.7,8.7,0,0,1-8.6,8.9,8.9,8.9,0,0,1-5.4-1.9,9.4,9.4,0,0,1-2.4-2.9Zm-5.1-28h-1v3.2h1Zm0,6.9h-1V97.4h1Zm-10.5,0h-1V97.4h1V87c0-2.5.3-4.7,2.5-6.7a6.5,6.5,0,0,1,4-1.3V78c-1.6.1-4.8.3-6.5,3.8h-.1Z" transform="translate(-512.2 -71.2)" fill="white"/>
    <path d="M521.8,92.2a4.6,4.6,0,1,1,4.5-4.6,4.5,4.5,0,0,1-4.5,4.6m-9.6,10.4h5.4V95a6.9,6.9,0,0,0,5.4,2.2c5.1,0,8.7-4.2,8.7-9.4s-2.4-9.8-8.8-9.8a6.8,6.8,0,0,0-5.6,2.6h-.1V78h-5Z" transform="translate(-512.2 -71.2)" fill="white"/>
  </g>
</svg>
