<svg xmlns="http://www.w3.org/2000/svg" viewBox="0 0 524.4 160.1">
  <title>tedeo</title>
  <g id="Calque_1" data-name="Calque 1">
    <g>
      <path d="M6,32.1V28H76.5v4.2H43V151.9H38.8V32.1Z" fill="#fff" stroke="#FFFFFF" stroke-miterlimit="10" stroke-width="12"/>
      <path d="M117,151.5a47.2,47.2,0,0,1-16.1-5.8,61.1,61.1,0,0,1-13.1-10.5,44.9,44.9,0,0,1-9.4-16.9A59.9,59.9,0,0,1,76,99.1a40.4,40.4,0,0,1,2.8-12.5,54.7,54.7,0,0,1,6-11.3,48.2,48.2,0,0,1,16.7-14.6,49.4,49.4,0,0,1,39.3-3,50.8,50.8,0,0,1,17.2,9.9,47.5,47.5,0,0,1,11.9,16.3,46.9,46.9,0,0,1,3.9,21.7H127.5v-4.9h41.7v-.7q-3-23.5-23.3-35.6a35.8,35.8,0,0,0-13.2-4.7,52.3,52.3,0,0,0-14.1-.2,39,39,0,0,0-14.9,4.8A45.9,45.9,0,0,0,91.6,74a42,42,0,0,0-9.8,18A43.5,43.5,0,0,0,89,129.1a47.1,47.1,0,0,0,15.5,13.5,35.2,35.2,0,0,0,9.8,3.5q5.3,1,10.3,1.7v4h-3.9A23.1,23.1,0,0,1,117,151.5Z" fill="#fff" stroke="#FFFFFF" stroke-miterlimit="10" stroke-width="12"/>
      <path d="M232.7,153.1a47.2,47.2,0,0,1-16.1-5.8,61.1,61.1,0,0,1-13.1-10.5,38.9,38.9,0,0,1-6.1-8.9,65.3,65.3,0,0,1-4-9.9,42.9,42.9,0,0,1-1.7-17.3,48.6,48.6,0,0,1,4.8-16.4,52.5,52.5,0,0,1,10.1-13.9,49.3,49.3,0,0,1,14.1-9.8,38.7,38.7,0,0,1,12-3.6,69.5,69.5,0,0,1,12.5-.4,37.7,37.7,0,0,1,18.1,5.4,69.1,69.1,0,0,1,14.8,11.7l.8,1,.8,1,.8,1,1.3,1.9,1.2,1.9.7,1,.4.2.5.2V6H289q.5,72.7,0,145.9h-4.4V127.8l-.5.3-.4.2-.7,1-1.2,1.9-1.3,1.9-.8,1a38.8,38.8,0,0,1-9.1,9.4,50.8,50.8,0,0,1-11.7,6.4,51.7,51.7,0,0,1-13,3.2A48,48,0,0,1,232.7,153.1Zm1.2-4.5a40.7,40.7,0,0,0,14.3-.1,45.4,45.4,0,0,0,24.7-13.3,42.8,42.8,0,0,0,8-11.7q.9-2.1,2.1-4.6a11.3,11.3,0,0,0,1.2-5v-18a11.3,11.3,0,0,0-1.2-5q-1.2-2.5-2.1-4.6a47.2,47.2,0,0,0-6.6-10,46.3,46.3,0,0,0-8.9-8A42.2,42.2,0,0,0,254.9,63a44.7,44.7,0,0,0-11.7-2.3,44.1,44.1,0,0,0-19.7,3.4,45.2,45.2,0,0,0-15.6,10.8,44.3,44.3,0,0,0-9.6,16.3,43.5,43.5,0,0,0-1.8,19.9,36.6,36.6,0,0,0,2.5,10,44.4,44.4,0,0,0,5,9.2,45.6,45.6,0,0,0,13.1,12.2A44.3,44.3,0,0,0,233.9,148.6Z" fill="#fff" stroke="#FFFFFF" stroke-miterlimit="10" stroke-width="12"/>
      <path d="M348.9,151.5a47.2,47.2,0,0,1-16.1-5.8,61.1,61.1,0,0,1-13.1-10.5,44.9,44.9,0,0,1-9.4-16.9,59.9,59.9,0,0,1-2.4-19.2,40.4,40.4,0,0,1,2.8-12.5,54.7,54.7,0,0,1,6-11.3,48.2,48.2,0,0,1,16.7-14.6,49.4,49.4,0,0,1,39.3-3,50.8,50.8,0,0,1,17.2,9.9,47.5,47.5,0,0,1,11.9,16.3,46.9,46.9,0,0,1,3.9,21.7H359.4v-4.9h41.7v-.7q-3-23.5-23.3-35.6a35.8,35.8,0,0,0-13.2-4.7,52.3,52.3,0,0,0-14.1-.2,39,39,0,0,0-14.9,4.8A45.9,45.9,0,0,0,323.5,74a41.9,41.9,0,0,0-9.8,18,43.5,43.5,0,0,0,7.3,37.1,47.1,47.1,0,0,0,15.5,13.5,35.2,35.2,0,0,0,9.8,3.5q5.3,1,10.3,1.7v4h-3.9A23.1,23.1,0,0,1,348.9,151.5Z" fill="#fff" stroke="#FFFFFF" stroke-miterlimit="10" stroke-width="12"/>
      <path d="M459.2,153.1a43,43,0,0,1-11.3-3.7,47.2,47.2,0,0,1-10.2-6.7,52.2,52.2,0,0,1-8.2-9,45,45,0,0,1-5.7-10.5,50.2,50.2,0,0,1-3.2-17A47.7,47.7,0,0,1,423,90.2a48.7,48.7,0,0,1,7.4-13.9,47.1,47.1,0,0,1,11.5-10.8,53.2,53.2,0,0,1,14.7-6.8,50.6,50.6,0,0,1,17.2-1.8,38.4,38.4,0,0,1,12.6,2.8,70.9,70.9,0,0,1,11.4,5.9,45.5,45.5,0,0,1,9.9,9.2,60.5,60.5,0,0,1,7.1,11.5A37.4,37.4,0,0,1,518,98.3a80.8,80.8,0,0,1,.3,12.5,23.3,23.3,0,0,1-1,6.7,64.7,64.7,0,0,1-2.2,6.2,43.8,43.8,0,0,1-9,14.6,48.2,48.2,0,0,1-13.4,10.1,52.9,52.9,0,0,1-16.2,5.1A49.3,49.3,0,0,1,459.2,153.1Zm3.3-4a39.4,39.4,0,0,0,15-.1,47.2,47.2,0,0,0,13.9-5,42.4,42.4,0,0,0,20.8-25.6,44.4,44.4,0,0,0,1.6-15.7,45.1,45.1,0,0,0-3.9-15.3,45.6,45.6,0,0,0-23.7-23,44.1,44.1,0,0,0-11.1-2.9,42.5,42.5,0,0,0-11.8.1,43.1,43.1,0,0,0-21,9.2A46.8,46.8,0,0,0,429,87.9a44.6,44.6,0,0,0-3.8,21.4,40.9,40.9,0,0,0,7.9,21.5A41.2,41.2,0,0,0,445.9,143,45,45,0,0,0,462.5,149.1Z" fill="#fff" stroke="#FFFFFF" stroke-miterlimit="10" stroke-width="12"/>
    </g>
  </g>
</svg>
