<?xml version="1.0" encoding="utf-8"?>
<!-- Generator: Adobe Illustrator 15.0.0, SVG Export Plug-In . SVG Version: 6.00 Build 0)  -->
<!DOCTYPE svg PUBLIC "-//W3C//DTD SVG 1.1//EN" "http://www.w3.org/Graphics/SVG/1.1/DTD/svg11.dtd">
<svg version="1.1" id="Layer_1" xmlns="http://www.w3.org/2000/svg" xmlns:xlink="http://www.w3.org/1999/xlink" x="0px" y="0px"
	 width="200px" height="100px" viewBox="0 0 200 100" enable-background="new 0 0 200 100" xml:space="preserve">
<g>
	<g>
		<path fill="white" d="M64.196,42.045h-6.306c-0.388,0-0.717-0.329-0.717-0.748c0-0.388,0.329-0.717,0.717-0.717h14.045
			c0.389,0,0.717,0.329,0.717,0.717c0,0.419-0.329,0.748-0.717,0.748h-6.305v18.737c0,0.389-0.329,0.717-0.717,0.717
			s-0.717-0.328-0.717-0.717V42.045z"/>
		<path fill="white" d="M72.742,54.208c0-4.064,3.168-7.352,7.112-7.352c3.766,0,6.753,2.989,7.053,6.814v0.03v0.089
			c0,0.389-0.329,0.657-0.718,0.657H74.176c0.149,3.197,2.66,5.618,5.678,5.618c1.942,0,3.735-1.016,4.722-2.659
			c0.209-0.358,0.657-0.419,0.956-0.239c0.329,0.239,0.448,0.657,0.24,1.016c-1.255,2.003-3.437,3.317-5.917,3.317
			C75.91,61.499,72.742,58.212,72.742,54.208z M74.267,53.042h11.086c-0.478-2.749-2.809-4.751-5.499-4.751
			C77.105,48.291,74.804,50.263,74.267,53.042z"/>
		<path fill="white" d="M102.445,52.833c0-2.48-2.002-4.513-4.514-4.513c-2.479,0-4.482,2.032-4.541,4.513v7.949v0.119
			c-0.03,0.119-0.061,0.239-0.15,0.329c-0.119,0.179-0.328,0.269-0.537,0.269h-0.18c-0.209-0.06-0.389-0.209-0.479-0.389
			c-0.029-0.03-0.029-0.06-0.029-0.09s-0.03-0.059-0.03-0.059v-0.18v-7.949v-0.24v-4.99c0-0.388,0.299-0.717,0.718-0.717
			c0.389,0,0.688,0.329,0.688,0.717v1.405c1.075-1.285,2.719-2.122,4.541-2.122c3.288,0,5.947,2.689,5.947,5.947v7.949
			c0,0.419-0.328,0.717-0.717,0.717s-0.717-0.298-0.717-0.717V52.833z"/>
		<path fill="white" d="M121.42,58.66c-1.284,1.733-3.317,2.839-5.619,2.839c-3.943,0-7.082-3.287-7.082-7.291
			c0-4.064,3.139-7.352,7.082-7.352c2.302,0,4.335,1.136,5.619,2.869v-8.427c0-0.388,0.328-0.717,0.747-0.717
			c0.389,0,0.718,0.329,0.718,0.717v12.611v0.3v6.574c0,0.389-0.329,0.717-0.718,0.717c-0.419,0-0.747-0.328-0.747-0.717V58.66z
			 M121.42,54.446v-0.478c-0.119-3.138-2.6-5.648-5.619-5.648c-3.077,0-5.617,2.63-5.617,5.888c0,3.228,2.54,5.827,5.617,5.827
			C118.82,60.035,121.301,57.555,121.42,54.446z"/>
		<path fill="white" d="M141.71,47.573v13.209c0,0.389-0.33,0.717-0.718,0.717s-0.718-0.328-0.718-0.717v-2.182
			c-1.255,1.733-3.257,2.898-5.498,2.898c-3.855,0-6.933-3.317-6.933-7.321c0-4.005,3.077-7.322,6.933-7.322
			c2.241,0,4.243,1.136,5.498,2.869v-2.151c0-0.418,0.33-0.717,0.718-0.717S141.71,47.155,141.71,47.573z M140.274,54.178
			c0-3.287-2.479-5.917-5.498-5.917c-2.988,0-5.498,2.63-5.498,5.917s2.51,5.887,5.498,5.887
			C137.795,60.064,140.274,57.465,140.274,54.178z"/>
		<path fill="white" d="M158.084,52.833c0-2.48-2.002-4.513-4.512-4.513c-2.481,0-4.482,2.032-4.543,4.513v7.949v0.119
			c-0.03,0.119-0.06,0.239-0.148,0.329c-0.12,0.179-0.329,0.269-0.539,0.269h-0.179c-0.209-0.06-0.389-0.209-0.479-0.389
			c-0.03-0.03-0.03-0.06-0.03-0.09s-0.029-0.059-0.029-0.059v-0.18v-7.949v-0.24v-4.99c0-0.388,0.299-0.717,0.717-0.717
			c0.389,0,0.688,0.329,0.688,0.717v1.405c1.076-1.285,2.72-2.122,4.543-2.122c3.287,0,5.946,2.689,5.946,5.947v7.949
			c0,0.419-0.328,0.717-0.717,0.717s-0.718-0.298-0.718-0.717V52.833z"/>
		<path fill="white" d="M164.896,54.148c0-4.065,3.347-7.292,7.531-7.292c1.733,0,3.376,0.598,4.661,1.614
			c0.3,0.209,0.358,0.657,0.09,0.986c-0.238,0.269-0.657,0.358-0.986,0.119c-1.046-0.837-2.361-1.315-3.765-1.315
			c-3.407,0-6.098,2.661-6.098,5.888c0,3.287,2.69,5.916,6.098,5.916c1.403,0,2.719-0.479,3.765-1.285
			c0.329-0.239,0.748-0.149,0.986,0.12c0.269,0.328,0.21,0.776-0.149,1.045c-1.226,0.957-2.868,1.555-4.602,1.555
			C168.243,61.499,164.896,58.271,164.896,54.148z"/>
		<path fill="white" d="M181.512,54.208c0-4.064,3.166-7.352,7.112-7.352c3.765,0,6.752,2.989,7.052,6.814v0.03v0.089
			c0,0.389-0.328,0.657-0.717,0.657h-12.014c0.149,3.197,2.66,5.618,5.679,5.618c1.942,0,3.734-1.016,4.721-2.659
			c0.209-0.358,0.657-0.419,0.956-0.239c0.329,0.239,0.449,0.657,0.239,1.016c-1.255,2.003-3.437,3.317-5.916,3.317
			C184.678,61.499,181.512,58.212,181.512,54.208z M183.035,53.042h11.087c-0.479-2.749-2.809-4.751-5.498-4.751
			C185.874,48.291,183.572,50.263,183.035,53.042z"/>
	</g>
	<g>
		<path fill="white" d="M64.196,42.045h-6.306c-0.388,0-0.717-0.329-0.717-0.748c0-0.388,0.329-0.717,0.717-0.717h14.045
			c0.389,0,0.717,0.329,0.717,0.717c0,0.419-0.329,0.748-0.717,0.748h-6.305v18.737c0,0.389-0.329,0.717-0.717,0.717
			s-0.717-0.328-0.717-0.717V42.045z"/>
		<path fill="white" d="M72.742,54.208c0-4.064,3.168-7.352,7.112-7.352c3.766,0,6.753,2.989,7.053,6.814v0.03v0.089
			c0,0.389-0.329,0.657-0.718,0.657H74.176c0.149,3.197,2.66,5.618,5.678,5.618c1.942,0,3.735-1.016,4.722-2.659
			c0.209-0.358,0.657-0.419,0.956-0.239c0.329,0.239,0.448,0.657,0.24,1.016c-1.255,2.003-3.437,3.317-5.917,3.317
			C75.91,61.499,72.742,58.212,72.742,54.208z M74.267,53.042h11.086c-0.478-2.749-2.809-4.751-5.499-4.751
			C77.105,48.291,74.804,50.263,74.267,53.042z"/>
		<path fill="white" d="M102.445,52.833c0-2.48-2.002-4.513-4.514-4.513c-2.479,0-4.482,2.032-4.541,4.513v7.949v0.119
			c-0.03,0.119-0.061,0.239-0.15,0.329c-0.119,0.179-0.328,0.269-0.537,0.269h-0.18c-0.209-0.06-0.389-0.209-0.479-0.389
			c-0.029-0.03-0.029-0.06-0.029-0.09s-0.03-0.059-0.03-0.059v-0.18v-7.949v-0.24v-4.99c0-0.388,0.299-0.717,0.718-0.717
			c0.389,0,0.688,0.329,0.688,0.717v1.405c1.075-1.285,2.719-2.122,4.541-2.122c3.288,0,5.947,2.689,5.947,5.947v7.949
			c0,0.419-0.328,0.717-0.717,0.717s-0.717-0.298-0.717-0.717V52.833z"/>
		<path fill="white" d="M121.42,58.66c-1.284,1.733-3.317,2.839-5.619,2.839c-3.943,0-7.082-3.287-7.082-7.291
			c0-4.064,3.139-7.352,7.082-7.352c2.302,0,4.335,1.136,5.619,2.869v-8.427c0-0.388,0.328-0.717,0.747-0.717
			c0.389,0,0.718,0.329,0.718,0.717v12.611v0.3v6.574c0,0.389-0.329,0.717-0.718,0.717c-0.419,0-0.747-0.328-0.747-0.717V58.66z
			 M121.42,54.446v-0.478c-0.119-3.138-2.6-5.648-5.619-5.648c-3.077,0-5.617,2.63-5.617,5.888c0,3.228,2.54,5.827,5.617,5.827
			C118.82,60.035,121.301,57.555,121.42,54.446z"/>
		<path fill="white" d="M141.71,47.573v13.209c0,0.389-0.33,0.717-0.718,0.717s-0.718-0.328-0.718-0.717v-2.182
			c-1.255,1.733-3.257,2.898-5.498,2.898c-3.855,0-6.933-3.317-6.933-7.321c0-4.005,3.077-7.322,6.933-7.322
			c2.241,0,4.243,1.136,5.498,2.869v-2.151c0-0.418,0.33-0.717,0.718-0.717S141.71,47.155,141.71,47.573z M140.274,54.178
			c0-3.287-2.479-5.917-5.498-5.917c-2.988,0-5.498,2.63-5.498,5.917s2.51,5.887,5.498,5.887
			C137.795,60.064,140.274,57.465,140.274,54.178z"/>
		<path fill="white" d="M158.084,52.833c0-2.48-2.002-4.513-4.512-4.513c-2.481,0-4.482,2.032-4.543,4.513v7.949v0.119
			c-0.03,0.119-0.06,0.239-0.148,0.329c-0.12,0.179-0.329,0.269-0.539,0.269h-0.179c-0.209-0.06-0.389-0.209-0.479-0.389
			c-0.03-0.03-0.03-0.06-0.03-0.09s-0.029-0.059-0.029-0.059v-0.18v-7.949v-0.24v-4.99c0-0.388,0.299-0.717,0.717-0.717
			c0.389,0,0.688,0.329,0.688,0.717v1.405c1.076-1.285,2.72-2.122,4.543-2.122c3.287,0,5.946,2.689,5.946,5.947v7.949
			c0,0.419-0.328,0.717-0.717,0.717s-0.718-0.298-0.718-0.717V52.833z"/>
		<path fill="white" d="M164.896,54.148c0-4.065,3.347-7.292,7.531-7.292c1.733,0,3.376,0.598,4.661,1.614
			c0.3,0.209,0.358,0.657,0.09,0.986c-0.238,0.269-0.657,0.358-0.986,0.119c-1.046-0.837-2.361-1.315-3.765-1.315
			c-3.407,0-6.098,2.661-6.098,5.888c0,3.287,2.69,5.916,6.098,5.916c1.403,0,2.719-0.479,3.765-1.285
			c0.329-0.239,0.748-0.149,0.986,0.12c0.269,0.328,0.21,0.776-0.149,1.045c-1.226,0.957-2.868,1.555-4.602,1.555
			C168.243,61.499,164.896,58.271,164.896,54.148z"/>
		<path fill="white" d="M181.512,54.208c0-4.064,3.166-7.352,7.112-7.352c3.765,0,6.752,2.989,7.052,6.814v0.03v0.089
			c0,0.389-0.328,0.657-0.717,0.657h-12.014c0.149,3.197,2.66,5.618,5.679,5.618c1.942,0,3.734-1.016,4.721-2.659
			c0.209-0.358,0.657-0.419,0.956-0.239c0.329,0.239,0.449,0.657,0.239,1.016c-1.255,2.003-3.437,3.317-5.916,3.317
			C184.678,61.499,181.512,58.212,181.512,54.208z M183.035,53.042h11.087c-0.479-2.749-2.809-4.751-5.498-4.751
			C185.874,48.291,183.572,50.263,183.035,53.042z"/>
	</g>
	<g>
		<path fill="none" stroke="white" stroke-miterlimit="10" d="M64.196,42.045h-6.306c-0.388,0-0.717-0.329-0.717-0.748
			c0-0.388,0.329-0.717,0.717-0.717h14.045c0.389,0,0.717,0.329,0.717,0.717c0,0.419-0.329,0.748-0.717,0.748h-6.305v18.737
			c0,0.389-0.329,0.717-0.717,0.717s-0.717-0.328-0.717-0.717V42.045z"/>
		<path fill="none" stroke="white" stroke-miterlimit="10" d="M72.742,54.208c0-4.064,3.168-7.352,7.112-7.352
			c3.766,0,6.753,2.989,7.053,6.814v0.03v0.089c0,0.389-0.329,0.657-0.718,0.657H74.176c0.149,3.197,2.66,5.618,5.678,5.618
			c1.942,0,3.735-1.016,4.722-2.659c0.209-0.358,0.657-0.419,0.956-0.239c0.329,0.239,0.448,0.657,0.24,1.016
			c-1.255,2.003-3.437,3.317-5.917,3.317C75.91,61.499,72.742,58.212,72.742,54.208z M74.267,53.042h11.086
			c-0.478-2.749-2.809-4.751-5.499-4.751C77.105,48.291,74.804,50.263,74.267,53.042z"/>
		<path fill="none" stroke="white" stroke-miterlimit="10" d="M102.445,52.833c0-2.48-2.002-4.513-4.514-4.513
			c-2.479,0-4.482,2.032-4.541,4.513v7.949v0.119c-0.03,0.119-0.061,0.239-0.15,0.329c-0.119,0.179-0.328,0.269-0.537,0.269h-0.18
			c-0.209-0.06-0.389-0.209-0.479-0.389c-0.029-0.03-0.029-0.06-0.029-0.09s-0.03-0.059-0.03-0.059v-0.18v-7.949v-0.24v-4.99
			c0-0.388,0.299-0.717,0.718-0.717c0.389,0,0.688,0.329,0.688,0.717v1.405c1.075-1.285,2.719-2.122,4.541-2.122
			c3.288,0,5.947,2.689,5.947,5.947v7.949c0,0.419-0.328,0.717-0.717,0.717s-0.717-0.298-0.717-0.717V52.833z"/>
		<path fill="none" stroke="white" stroke-miterlimit="10" d="M121.42,58.66c-1.284,1.733-3.317,2.839-5.619,2.839
			c-3.943,0-7.082-3.287-7.082-7.291c0-4.064,3.139-7.352,7.082-7.352c2.302,0,4.335,1.136,5.619,2.869v-8.427
			c0-0.388,0.328-0.717,0.747-0.717c0.389,0,0.718,0.329,0.718,0.717v12.611v0.3v6.574c0,0.389-0.329,0.717-0.718,0.717
			c-0.419,0-0.747-0.328-0.747-0.717V58.66z M121.42,54.446v-0.478c-0.119-3.138-2.6-5.648-5.619-5.648
			c-3.077,0-5.617,2.63-5.617,5.888c0,3.228,2.54,5.827,5.617,5.827C118.82,60.035,121.301,57.555,121.42,54.446z"/>
		<path fill="none" stroke="white" stroke-miterlimit="10" d="M141.71,47.573v13.209c0,0.389-0.33,0.717-0.718,0.717
			s-0.718-0.328-0.718-0.717v-2.182c-1.255,1.733-3.257,2.898-5.498,2.898c-3.855,0-6.933-3.317-6.933-7.321
			c0-4.005,3.077-7.322,6.933-7.322c2.241,0,4.243,1.136,5.498,2.869v-2.151c0-0.418,0.33-0.717,0.718-0.717
			S141.71,47.155,141.71,47.573z M140.274,54.178c0-3.287-2.479-5.917-5.498-5.917c-2.988,0-5.498,2.63-5.498,5.917
			s2.51,5.887,5.498,5.887C137.795,60.064,140.274,57.465,140.274,54.178z"/>
		<path fill="none" stroke="white" stroke-miterlimit="10" d="M158.084,52.833c0-2.48-2.002-4.513-4.512-4.513
			c-2.481,0-4.482,2.032-4.543,4.513v7.949v0.119c-0.03,0.119-0.06,0.239-0.148,0.329c-0.12,0.179-0.329,0.269-0.539,0.269h-0.179
			c-0.209-0.06-0.389-0.209-0.479-0.389c-0.03-0.03-0.03-0.06-0.03-0.09s-0.029-0.059-0.029-0.059v-0.18v-7.949v-0.24v-4.99
			c0-0.388,0.299-0.717,0.717-0.717c0.389,0,0.688,0.329,0.688,0.717v1.405c1.076-1.285,2.72-2.122,4.543-2.122
			c3.287,0,5.946,2.689,5.946,5.947v7.949c0,0.419-0.328,0.717-0.717,0.717s-0.718-0.298-0.718-0.717V52.833z"/>
		<path fill="none" stroke="white" stroke-miterlimit="10" d="M164.896,54.148c0-4.065,3.347-7.292,7.531-7.292
			c1.733,0,3.376,0.598,4.661,1.614c0.3,0.209,0.358,0.657,0.09,0.986c-0.238,0.269-0.657,0.358-0.986,0.119
			c-1.046-0.837-2.361-1.315-3.765-1.315c-3.407,0-6.098,2.661-6.098,5.888c0,3.287,2.69,5.916,6.098,5.916
			c1.403,0,2.719-0.479,3.765-1.285c0.329-0.239,0.748-0.149,0.986,0.12c0.269,0.328,0.21,0.776-0.149,1.045
			c-1.226,0.957-2.868,1.555-4.602,1.555C168.243,61.499,164.896,58.271,164.896,54.148z"/>
		<path fill="none" stroke="white" stroke-miterlimit="10" d="M181.512,54.208c0-4.064,3.166-7.352,7.112-7.352
			c3.765,0,6.752,2.989,7.052,6.814v0.03v0.089c0,0.389-0.328,0.657-0.717,0.657h-12.014c0.149,3.197,2.66,5.618,5.679,5.618
			c1.942,0,3.734-1.016,4.721-2.659c0.209-0.358,0.657-0.419,0.956-0.239c0.329,0.239,0.449,0.657,0.239,1.016
			c-1.255,2.003-3.437,3.317-5.916,3.317C184.678,61.499,181.512,58.212,181.512,54.208z M183.035,53.042h11.087
			c-0.479-2.749-2.809-4.751-5.498-4.751C185.874,48.291,183.572,50.263,183.035,53.042z"/>
	</g>
</g>
<rect x="15.11" y="52.587" fill="#FFF" width="4.244" height="7.041"/>
<rect x="22.183" y="46.483" fill="#FFF" width="4.244" height="13.145"/>
<rect x="29.255" y="41.631" fill="#FFF" width="4.244" height="17.997"/>
<polygon fill="white" points="2.05,46.074 9.941,38.98 12.829,49.454 "/>
<path fill="white" d="M11.567,59.751c-1.646-2.49-2.61-5.473-2.61-8.682c0-2.112,0.422-4.124,1.175-5.964l-3.265-2.34
	c-1.177,2.527-1.853,5.333-1.853,8.304c0,3.966,1.182,7.652,3.198,10.744L11.567,59.751z"/>
<g>
	<path fill="white" d="M40.385,49h3.969c-0.938-10-9.362-17.753-19.624-17.753c-4.959,0-9.479,1.896-12.944,4.92l2.655,2.788
		c2.665-2.061,6.659-3.777,10.289-3.777C32.812,35.177,39.464,42,40.385,49z"/>
	<path fill="white" d="M40.452,52C39.912,60,34,66.031,26,66.766v3.944C36,69.953,43.84,62,44.394,52H40.452z"/>
</g>
<path fill="white" d="M24,66.77c-5-0.35-7.643-2.074-10.191-4.684l-3.237,2.099C13.881,67.892,18,70.345,24,70.728V66.77z"/>
</svg>
