<svg id="Calque_1" data-name="Calque 1" xmlns="http://www.w3.org/2000/svg" xmlns:xlink="http://www.w3.org/1999/xlink" viewBox="0 0 509.9 161.1"><defs><linearGradient id="Dégradé_sans_nom" x1="3306" y1="-1843.68" x2="3306" y2="-1670.84" gradientTransform="matrix(-1, 0, 0, 1, 3382.5, 1838.12)" gradientUnits="userSpaceOnUse"><stop offset="0" stop-color="#21dab0"/><stop offset="1" stop-color="#3356ec"/></linearGradient></defs><title>wecraftapps-logo</title><g id="hexanim-groupe"><path id="hexanim" d="M71.5,6.3a11.4,11.4,0,0,1,9.9,0l59.8,33.1a10.6,10.6,0,0,1,5,8.4v66a10.6,10.6,0,0,1-5,8.4L81.4,155.4a11.4,11.4,0,0,1-9.9,0L11.7,122.2a10.6,10.6,0,0,1-5-8.4v-66a10.6,10.6,0,0,1,5-8.4Z" transform="translate(0 0)" fill="none"/></g><path id="hexa" d="M76.5,161.1a29.8,29.8,0,0,1-14.7-3.9L12.3,129.1A24.4,24.4,0,0,1,0,107.9V53.2A24.4,24.4,0,0,1,12.3,32L61.8,3.9a30,30,0,0,1,29.5,0L140.7,32A24.4,24.4,0,0,1,153,53.2v54.7a24.4,24.4,0,0,1-12.3,21.2L91.3,157.2A29.8,29.8,0,0,1,76.5,161.1ZM87,11.4a21.2,21.2,0,0,0-20.8,0L16.6,39.6A15.7,15.7,0,0,0,8.7,53.2v54.7a15.7,15.7,0,0,0,7.9,13.6l49.5,28.1a21.2,21.2,0,0,0,20.8,0l49.5-28.1a15.7,15.7,0,0,0,7.9-13.6V53.2a15.7,15.7,0,0,0-7.9-13.6Z" transform="translate(0 0)" fill="url(#Dégradé_sans_nom)"/><path id="we" d="M104.2,59.6h-0.9c-12.8.3-16.6,7.7-17.8,17.6v1L83.6,90.7c-0.5,3.2-1.4,4-3.2,4s-2.8-.8-3.2-4L74,67.5c-0.9-6.2-3.4-7.9-8.7-7.9s-7.8,2.3-8.6,7.9L53.6,90.7c-0.5,3.2-1.4,4-3.2,4s-2.8-.8-3.2-4L43.3,62.8a3.8,3.8,0,0,0-3.7-3.3H38.1A2,2,0,0,0,36,62l4.1,29c1.1,7.1,2,10.7,10.2,10.7s9.3-3.9,10.3-10.8L63.4,70c0.4-2.8.7-3.4,1.9-3.4s1.6,0.6,2,3.4L70,90.9c1,6.9,3.1,10.8,10.4,10.8,4.2,0,6.7-1,8.3-2.8,2.7,1.9,6.8,2.8,12.4,2.8a44.6,44.6,0,0,0,12.4-1.7,2.9,2.9,0,0,0,2-2.4l0.3-2.5a1.7,1.7,0,0,0-1.3-2h-1A49.8,49.8,0,0,1,102,94.7c-8.2,0-11.3-2.4-10.6-8.3V85.2l1.2-9.7h0V74.6c0.7-5.5,4.4-8.2,10.5-8.2s9.1,3.2,8.5,8.7l-0.2,1.8H101.1A3.1,3.1,0,0,0,98,79.7l-0.2,2.2a1.6,1.6,0,0,0,1.4,1.8h14.4a4.2,4.2,0,0,0,4-3.2c0.3-1.5.5-3,.7-4.1C119.7,66.4,114.8,59.6,104.2,59.6Z" transform="translate(0 0)" fill="#fff"/><g id="wca-1"><path id="wca-c" d="M208,93.2a3,3,0,0,0-2.4-.1,35.9,35.9,0,0,1-6.3.7c-8.2,0-11.3-2.6-11.3-9.6V76.7c0-6.9,2.9-9.5,10.7-9.5a18.5,18.5,0,0,1,6,.8c1.3,0.4,2,.4,2.5,0s0.6-1.1.6-2.5v-1c0-2.6-.5-3.2-3.1-3.8a24.9,24.9,0,0,0-6.2-.8c-11.9,0-18.4,5.9-18.4,16.7v7.9c0,11.3,6.1,16.7,18.7,16.7a26.8,26.8,0,0,0,6.5-.8c2.7-.6,3.2-1.3,3.2-3.8v-1A2.9,2.9,0,0,0,208,93.2Z" transform="translate(0 0)" fill="#fff"/><path id="wca-r" d="M230.7,60h-1.6c-10.1,0-15,4.6-15,14.1V97c0,2.8.6,3.4,3.4,3.4h1c2.8,0,3.4-.6,3.4-3.4V74.5c0-5.3,1.9-7.3,7.2-7.3h1.7a3.8,3.8,0,0,0,2.6-.2c0.4-.3.6-1,0.6-2.4v-1C233.9,60.8,233.2,60.3,230.7,60Z" transform="translate(0 0)" fill="#fff"/><path id="wca-a" d="M250.5,59.9a50,50,0,0,0-8,.6c-2.2.4-2.7,1.1-2.7,3.3v1.1a3.3,3.3,0,0,0,.5,2.2c0.3,0.3,1,.4,2.2.2a44,44,0,0,1,8.5-.7c5.8,0,9.7,1.1,9.7,6.3v4.2h-9.1c-11.1,0-16.2,3.8-16.2,12s5.3,12.2,16.2,12.2,17-3.9,17-12.7V72.9C268.5,64,262.8,59.9,250.5,59.9Zm10.2,28.3c0,5.4-3.6,6.5-9.3,6.5-3.8,0-8.1-.7-8.1-5.8s2.5-5.9,8.4-5.9h9.1v5.2h-0.1Z" transform="translate(0 0)" fill="#fff"/><path id="wca-ft" d="M326.8,93.1a27.3,27.3,0,0,1-6.6.7c-4.3,0-6.5-2.4-6.5-7.2V68.1h11.5c2.5,0,3.2-.4,3.2-3.2V64c0-2.8-.7-3.2-3.2-3.2H313.7V53c0-2.2-.5-2.7-2.7-2.7h-1c-2.2,0-2.8.5-3.1,2.7l-1,7.8H287.5V55.3c0-3.8,2.4-5.7,7.1-5.7l3.6,0.2c1.7,0.2,3.1.3,3.6-.1a3.4,3.4,0,0,0,.6-2.5v-1c0-2.5-.5-3.1-3.3-3.7a29.8,29.8,0,0,0-5.1-.4c-9.8,0-14.3,4.4-14.3,13.7v4.9l-4.5.8c-2.1.4-2.6,1-2.6,3.1v0.8c0,2.1.5,2.6,2.6,2.6h4.4V97c0,2.8.6,3.4,3.4,3.4h1c2.8,0,3.4-.6,3.4-3.4V68.1h18.4V86.6c0,9.8,4.7,14.6,14.3,14.6a35.5,35.5,0,0,0,6.5-.6c2.5-.5,3.1-1.3,3.1-3.8v-1c0-1.5-.2-2.2-0.6-2.5S328.1,92.9,326.8,93.1Z" transform="translate(0 0)" fill="#fff"/></g><g id="wca-2"><path id="wca-2-a" d="M370.7,59.9a50,50,0,0,0-8,.6c-2.2.4-2.7,1.1-2.7,3.3v1.1a3.3,3.3,0,0,0,.5,2.2c0.3,0.3,1,.4,2.2.2a44,44,0,0,1,8.5-.7c5.8,0,9.7,1.1,9.7,6.3v4.2h-9.1c-11.1,0-16.2,3.8-16.2,12s5.3,12.2,16.2,12.2,17-3.9,17-12.7V72.9C388.8,64,383,59.9,370.7,59.9ZM381,88.2c0,5.4-3.6,6.5-9.3,6.5-3.8,0-8.1-.7-8.1-5.8S366,83,371.9,83H381v5.2Z" transform="translate(0 0)" fill="#fff"/><path id="wca-2-p1" d="M413.1,59.9c-11.9,0-18.2,5.9-18.2,17v36.2c0,2.8.6,3.4,3.4,3.4h1c2.8,0,3.4-.6,3.4-3.4V95.5l0.4,0.6c2.1,3.4,6.1,5.1,11.7,5.1,11,0,16.6-5.8,16.6-17.4v-7C431.4,65.3,425.6,59.9,413.1,59.9Zm10.4,24.2c0,7.2-2.7,9.8-10.3,9.8s-10.5-2.6-10.5-9.8v-7c0-7.2,2.8-9.9,10.5-9.9s10.3,2.6,10.3,9.9V84h0Z" transform="translate(0 0)" fill="#fff"/><path id="wca-2-p2" d="M456.2,59.9c-11.9,0-18.2,5.9-18.2,17v36.2c0,2.8.6,3.4,3.4,3.4h1c2.8,0,3.4-.6,3.4-3.4V95.5l0.4,0.6c2.1,3.4,6.1,5.1,11.7,5.1,11,0,16.6-5.8,16.6-17.4v-7C474.5,65.3,468.6,59.9,456.2,59.9Zm10.4,24.2c0,7.2-2.7,9.8-10.3,9.8s-10.5-2.6-10.5-9.8v-7c0-7.2,2.8-9.9,10.5-9.9s10.3,2.6,10.3,9.9V84h0Z" transform="translate(0 0)" fill="#fff"/><path id="wca-2-s" d="M509.9,90.2c0-5.6-2.2-8.5-8.5-11.2L492,75c-2.7-1.2-3.9-2.2-3.9-4.3s2.1-3.5,7.3-3.5a34.7,34.7,0,0,1,9.7,1.3c1.2,0.3,2,.4,2.4,0s0.6-1.1.6-2.6v-1c0-2.6-.5-3-3.2-3.8a34.7,34.7,0,0,0-9.3-1.2c-10.5,0-15.2,3.3-15.2,10.8,0,5.5,2.1,8.3,7.9,10.8l8.7,3.9c4.2,1.9,5.3,2.9,5.3,5s-2,3.7-7.7,3.7a45.6,45.6,0,0,1-11.8-1.5l-1.4-.2a1.4,1.4,0,0,0-.9.2c-0.4.3-.6,1.1-0.6,2.6v1c0,2.5.4,3,3.1,3.7a43.4,43.4,0,0,0,11,1.4C504.9,101.3,509.9,97.9,509.9,90.2Z" transform="translate(0 0)" fill="#fff"/></g></svg>